<?xml version="1.0" encoding="utf-8"?>
<!-- Generator: Adobe Illustrator 19.0.0, SVG Export Plug-In . SVG Version: 6.00 Build 0)  -->
<svg version="1.1" id="Layer_1" xmlns="http://www.w3.org/2000/svg" xmlns:xlink="http://www.w3.org/1999/xlink" x="0px" y="0px"
	 width="1400px" height="1400px" viewBox="0 0 1400 1400" enable-background="new 0 0 1400 1400" xml:space="preserve">
<g id="XMLID_1_">
	<g>
		<linearGradient id="XMLID_319_" gradientUnits="userSpaceOnUse" x1="700" y1="985.3854" x2="700" y2="132.0401">
			<stop  offset="0" style="stop-color:#0D6965"/>
			<stop  offset="1" style="stop-color:#38BEB6"/>
		</linearGradient>
		<rect id="XMLID_317_" fill-rule="evenodd" clip-rule="evenodd" fill="url(#XMLID_319_)" width="1400" height="1400"/>
		<linearGradient id="XMLID_320_" gradientUnits="userSpaceOnUse" x1="700" y1="1420.6003" x2="700" y2="877.3463">
			<stop  offset="0" style="stop-color:#0D6965"/>
			<stop  offset="1" style="stop-color:#38BEB6"/>
		</linearGradient>
		<rect id="XMLID_316_" y="844.1" fill-rule="evenodd" clip-rule="evenodd" fill="url(#XMLID_320_)" width="1400" height="555.9"/>
	</g>
	<g>
		<linearGradient id="XMLID_321_" gradientUnits="userSpaceOnUse" x1="702.3622" y1="349.8871" x2="702.3622" y2="233.2475">
			<stop  offset="0" style="stop-color:#AD0537"/>
			<stop  offset="1" style="stop-color:#ED1A37"/>
		</linearGradient>
		
			<rect id="XMLID_315_" x="267.1" y="221.6" fill-rule="evenodd" clip-rule="evenodd" fill="url(#XMLID_321_)" width="870.6" height="157.8"/>
		<linearGradient id="XMLID_322_" gradientUnits="userSpaceOnUse" x1="230.6585" y1="496.5139" x2="230.6585" y2="586.5153">
			<stop  offset="0" style="stop-color:#5C000A"/>
			<stop  offset="1" style="stop-color:#98051B"/>
		</linearGradient>
		<polygon id="XMLID_314_" fill="url(#XMLID_322_)" points="186,473.3 275.3,474.1 275.3,569 		"/>
		<linearGradient id="XMLID_323_" gradientUnits="userSpaceOnUse" x1="1170.6947" y1="496.5139" x2="1170.6947" y2="586.5153">
			<stop  offset="0" style="stop-color:#5C000A"/>
			<stop  offset="1" style="stop-color:#98051B"/>
		</linearGradient>
		<polygon id="XMLID_313_" fill="url(#XMLID_323_)" points="1212.3,473.3 1129,474.1 1129,569 1206.9,473.3 		"/>
		<path id="XMLID_312_" fill-rule="evenodd" clip-rule="evenodd" fill="#39373A" d="M1134.2,936.3c0,18.4-14.9,33.3-33.3,33.3H302.9
			c-18.4,0-33.3-14.9-33.3-33.3V463.1c0-18.4,14.9-33.3,33.3-33.3l798.1,0c18.4,0,33.3,14.9,33.3,33.3L1134.2,936.3z"/>
		<polygon id="XMLID_311_" fill-rule="evenodd" clip-rule="evenodd" fill="#FFFFFF" points="269.3,941.9 134,1157.3 1264.7,1155.4 
			1134.5,940.6 		"/>
		<path id="XMLID_310_" fill-rule="evenodd" clip-rule="evenodd" fill="#E1D9D4" d="M1266,1156.4L1266,1156.4
			c0,12.1-12.8,22-28.6,22H164c-15.8,0-28.6-9.8-28.6-22H1266z"/>
		<linearGradient id="XMLID_324_" gradientUnits="userSpaceOnUse" x1="702.149" y1="884.9991" x2="702.149" y2="454.8229">
			<stop  offset="0" style="stop-color:#38BEB6"/>
			<stop  offset="1" style="stop-color:#0D6965"/>
		</linearGradient>
		
			<rect id="XMLID_309_" x="317.8" y="473.2" fill-rule="evenodd" clip-rule="evenodd" fill="url(#XMLID_324_)" width="768.6" height="428"/>
		<g>
			<path id="XMLID_308_" fill-rule="evenodd" clip-rule="evenodd" fill="#39373A" d="M302.9,988.6l-20.7,0c-2.6,0-4.2-2.8-2.8-5
				l8.8-14.1c0.6-1,1.7-1.5,2.8-1.5l20.2,0c2.5,0,4.1,2.8,2.8,4.9l-8.2,14.1C305.2,988,304.1,988.6,302.9,988.6z"/>
			<path id="XMLID_307_" fill-rule="evenodd" clip-rule="evenodd" fill="#39373A" d="M324.8,1014.5l-58.7,0c-2.6,0-4.2-2.8-2.8-5
				l8.7-13.9c0.6-1,1.7-1.5,2.8-1.5l57.4,0c2.5,0,4.1,2.6,2.9,4.8l-7.4,13.9C327.1,1013.8,326,1014.5,324.8,1014.5z"/>
			<path id="XMLID_306_" fill-rule="evenodd" clip-rule="evenodd" fill="#39373A" d="M312,1042.6l-63.7,0c-1.8,0-2.9-2-2-3.5
				l9.7-15.7c0.4-0.7,1.2-1.1,2-1.1l62.2,0c1.7,0,2.9,1.9,2,3.4l-8.3,15.7C313.6,1042.1,312.9,1042.6,312,1042.6z"/>
			<path id="XMLID_305_" fill-rule="evenodd" clip-rule="evenodd" fill="#39373A" d="M337.1,988.6l-20.9,0c-2.5,0-4.1-2.7-2.9-4.9
				l8.1-14.1c0.6-1,1.7-1.7,2.9-1.7l20.3,0c2.5,0,4.1,2.6,2.9,4.8l-7.5,14.1C339.4,988,338.3,988.6,337.1,988.6z"/>
			<path id="XMLID_304_" fill-rule="evenodd" clip-rule="evenodd" fill="#39373A" d="M371.3,988.6l-21.1,0c-2.5,0-4.1-2.6-2.9-4.8
				l7.4-14.1c0.6-1.1,1.7-1.8,2.9-1.8l20.5,0c2.4,0,4,2.5,3,4.7l-6.8,14.1C373.7,987.9,372.5,988.6,371.3,988.6z"/>
			<path id="XMLID_303_" fill-rule="evenodd" clip-rule="evenodd" fill="#39373A" d="M405.4,988.6l-21.2,0c-2.4,0-4-2.5-3-4.7
				l6.7-14.1c0.5-1.1,1.7-1.9,3-1.9l20.6,0c2.4,0,4,2.4,3,4.6l-6.1,14.1C407.9,987.9,406.8,988.6,405.4,988.6z"/>
			<path id="XMLID_302_" fill-rule="evenodd" clip-rule="evenodd" fill="#39373A" d="M439.6,988.6l-21.3,0c-2.4,0-4-2.4-3-4.6
				l6-14.1c0.5-1.2,1.7-2,3-2l20.7,0c2.3,0,3.9,2.3,3.1,4.5l-5.4,14.1C442.2,987.8,441,988.6,439.6,988.6z"/>
			<path id="XMLID_301_" fill-rule="evenodd" clip-rule="evenodd" fill="#39373A" d="M473.8,988.6l-21.4,0c-2.3,0-3.9-2.3-3.1-4.5
				l5.3-14.1c0.5-1.3,1.7-2.1,3.1-2.1l20.9,0c2.2,0,3.8,2.2,3.1,4.3l-4.7,14.1C476.4,987.7,475.2,988.6,473.8,988.6z"/>
			<path id="XMLID_300_" fill-rule="evenodd" clip-rule="evenodd" fill="#39373A" d="M507.9,988.6l-21.5,0c-2.2,0-3.8-2.2-3.1-4.3
				l4.6-14.1c0.4-1.4,1.7-2.3,3.1-2.3l21,0c2.2,0,3.8,2.1,3.2,4.2l-4,14.1C510.7,987.7,509.4,988.6,507.9,988.6z"/>
			<path id="XMLID_299_" fill-rule="evenodd" clip-rule="evenodd" fill="#39373A" d="M542.1,988.6l-21.6,0c-2.2,0-3.8-2.1-3.2-4.2
				l3.9-14.1c0.4-1.4,1.7-2.4,3.2-2.4l21.1,0c2.1,0,3.7,2,3.2,4.1l-3.4,14.1C544.9,987.6,543.6,988.6,542.1,988.6z"/>
			<path id="XMLID_298_" fill-rule="evenodd" clip-rule="evenodd" fill="#39373A" d="M576.2,988.6l-21.7,0c-2.1,0-3.7-2-3.2-4
				l3.2-14.1c0.3-1.5,1.7-2.6,3.2-2.6l21.1,0c2.1,0,3.6,1.9,3.2,3.9l-2.7,14.1C579.2,987.5,577.8,988.6,576.2,988.6z"/>
			<path id="XMLID_297_" fill-rule="evenodd" clip-rule="evenodd" fill="#39373A" d="M610.8,988.6l-22.8,0c-1.7,0-3-1.6-2.7-3.3
				l2.7-15.1c0.2-1.3,1.4-2.3,2.7-2.3l22.2,0c1.7,0,3,1.5,2.7,3.2l-2.1,15.1C613.4,987.6,612.2,988.6,610.8,988.6z"/>
			<path id="XMLID_296_" fill-rule="evenodd" clip-rule="evenodd" fill="#39373A" d="M645,988.6l-22.9,0c-1.7,0-3-1.5-2.8-3.1
				l2-15.1c0.2-1.4,1.4-2.4,2.8-2.4l22.2,0c1.6,0,2.9,1.4,2.8,3l-1.4,15.1C647.6,987.5,646.4,988.6,645,988.6z"/>
			<path id="XMLID_295_" fill-rule="evenodd" clip-rule="evenodd" fill="#39373A" d="M679.1,988.6l-22.9,0c-1.6,0-2.9-1.4-2.8-3
				l1.2-15.1c0.1-1.4,1.3-2.5,2.8-2.5l22.3,0c1.6,0,2.8,1.3,2.8,2.9l-0.6,15.1C681.8,987.5,680.6,988.6,679.1,988.6z"/>
			<path id="XMLID_294_" fill-rule="evenodd" clip-rule="evenodd" fill="#39373A" d="M713.3,988.6l-22.9,0c-1.6,0-2.8-1.3-2.8-2.9
				l0.5-15.1c0-1.5,1.3-2.7,2.8-2.7l22.3,0c1.5,0,2.8,1.2,2.8,2.8l0.1,15.1C716.1,987.4,714.8,988.6,713.3,988.6z"/>
			<path id="XMLID_293_" fill-rule="evenodd" clip-rule="evenodd" fill="#39373A" d="M747.4,988.6l-22.9,0c-1.5,0-2.8-1.2-2.8-2.7
				l-0.2-15.1c0-1.5,1.2-2.8,2.8-2.8l22.3,0c1.5,0,2.7,1.1,2.8,2.6l0.9,15.1C750.3,987.3,749,988.6,747.4,988.6z"/>
			<path id="XMLID_292_" fill-rule="evenodd" clip-rule="evenodd" fill="#39373A" d="M781.5,988.6l-22.9,0c-1.5,0-2.7-1.1-2.8-2.6
				l-1-15.1c-0.1-1.6,1.2-3,2.8-3l22.3,0c1.4,0,2.6,1.1,2.8,2.5l1.6,15.1C784.5,987.2,783.2,988.6,781.5,988.6z"/>
			<path id="XMLID_291_" fill-rule="evenodd" clip-rule="evenodd" fill="#39373A" d="M815.7,988.6l-22.9,0c-1.4,0-2.6-1.1-2.8-2.5
				l-1.7-15.1c-0.2-1.6,1.1-3.1,2.8-3.1l22.2,0c1.4,0,2.5,1,2.7,2.3l2.3,15.1C818.7,987.1,817.4,988.6,815.7,988.6z"/>
			<path id="XMLID_290_" fill-rule="evenodd" clip-rule="evenodd" fill="#39373A" d="M849.7,988.6l-22.7,0c-1.4,0-2.6-1-2.8-2.4
				l-2.4-15c-0.3-1.7,1-3.3,2.8-3.3l22.1,0c1.3,0,2.5,0.9,2.8,2.3l3.1,15C852.9,987,851.5,988.6,849.7,988.6z"/>
			<path id="XMLID_289_" fill-rule="evenodd" clip-rule="evenodd" fill="#39373A" d="M883.8,988.6l-22.6,0c-1.3,0-2.5-0.9-2.8-2.2
				l-3.2-15c-0.4-1.8,1-3.4,2.8-3.4l22,0c1.3,0,2.4,0.9,2.7,2.1l3.8,15C887,986.9,885.7,988.6,883.8,988.6z"/>
			<path id="XMLID_288_" fill-rule="evenodd" clip-rule="evenodd" fill="#39373A" d="M917.9,988.6l-22.6,0c-1.3,0-2.4-0.9-2.7-2.1
				l-3.9-15c-0.5-1.8,0.9-3.6,2.7-3.6l21.9,0c1.2,0,2.4,0.8,2.7,2l4.5,15C921.2,986.8,919.8,988.6,917.9,988.6z"/>
			<path id="XMLID_287_" fill-rule="evenodd" clip-rule="evenodd" fill="#39373A" d="M952.1,988.6l-22.5,0c-1.2,0-2.3-0.8-2.7-2
				l-4.7-15c-0.6-1.8,0.8-3.7,2.7-3.7l21.9,0c1.2,0,2.3,0.8,2.7,1.9l5.3,15C955.4,986.7,954,988.6,952.1,988.6z"/>
			<path id="XMLID_286_" fill-rule="evenodd" clip-rule="evenodd" fill="#39373A" d="M986.2,988.6l-22.4,0c-1.2,0-2.3-0.7-2.7-1.9
				l-5.4-15c-0.7-1.8,0.7-3.8,2.7-3.8l21.8,0c1.2,0,2.2,0.7,2.6,1.8l6,15C989.5,986.6,988.2,988.6,986.2,988.6z"/>
			<path id="XMLID_285_" fill-rule="evenodd" clip-rule="evenodd" fill="#39373A" d="M1020.3,988.6l-22.3,0c-1.2,0-2.2-0.7-2.6-1.8
				l-6.1-15c-0.8-1.9,0.6-3.9,2.6-3.9l21.7,0c1.1,0,2.1,0.7,2.6,1.7l6.7,15C1023.7,986.5,1022.3,988.6,1020.3,988.6z"/>
			<path id="XMLID_284_" fill-rule="evenodd" clip-rule="evenodd" fill="#39373A" d="M1054.3,988.6l-22.2,0c-1.1,0-2.1-0.6-2.6-1.7
				l-6.9-15c-0.9-1.9,0.5-4,2.6-4l21.6,0c1.1,0,2.1,0.6,2.5,1.6l7.5,15C1057.8,986.4,1056.4,988.6,1054.3,988.6z"/>
			<path id="XMLID_283_" fill-rule="evenodd" clip-rule="evenodd" fill="#39373A" d="M1088.4,988.6l-22,0c-1.1,0-2-0.6-2.5-1.6
				l-7.6-15c-1-1.9,0.4-4.1,2.5-4.1l21.4,0c1,0,2,0.6,2.5,1.5l8.2,15C1092,986.3,1090.6,988.6,1088.4,988.6z"/>
			<path id="XMLID_282_" fill-rule="evenodd" clip-rule="evenodd" fill="#39373A" d="M1122.5,988.6l-21.9,0c-1,0-2-0.6-2.5-1.5
				l-8.3-15c-1.1-1.9,0.3-4.2,2.5-4.2l21.3,0c1,0,1.9,0.5,2.4,1.4l9,15C1126.1,986.2,1124.7,988.6,1122.5,988.6z"/>
			<path id="XMLID_281_" fill-rule="evenodd" clip-rule="evenodd" fill="#39373A" d="M256.8,1068.5h-25.4c-2.1,0-3.4-2.3-2.3-4.1
				l9.2-14.7c0.5-0.8,1.4-1.3,2.3-1.3l24.8,0c2.1,0,3.4,2.3,2.3,4.1l-8.6,14.7C258.6,1068,257.7,1068.5,256.8,1068.5z"/>
			<path id="XMLID_280_" fill-rule="evenodd" clip-rule="evenodd" fill="#39373A" d="M294.9,1068.5h-25.5c-2.1,0-3.4-2.2-2.3-4.1
				l8.4-14.7c0.5-0.8,1.4-1.4,2.3-1.4l24.9,0c2,0,3.3,2.2,2.4,4l-7.8,14.7C296.8,1067.9,295.9,1068.5,294.9,1068.5z"/>
			<path id="XMLID_279_" fill-rule="evenodd" clip-rule="evenodd" fill="#39373A" d="M333,1068.5h-25.6c-2,0-3.3-2.2-2.4-4l7.7-14.7
				c0.5-0.9,1.4-1.4,2.4-1.4l25,0c2,0,3.3,2.1,2.4,3.9l-7.1,14.7C335,1067.9,334,1068.5,333,1068.5z"/>
			<path id="XMLID_278_" fill-rule="evenodd" clip-rule="evenodd" fill="#39373A" d="M371.1,1068.5h-25.8c-2,0-3.3-2.1-2.4-3.9
				l7-14.7c0.4-0.9,1.4-1.5,2.4-1.5l25.2,0c1.9,0,3.3,2,2.5,3.8l-6.4,14.7C373.2,1067.8,372.2,1068.5,371.1,1068.5z"/>
			<path id="XMLID_277_" fill-rule="evenodd" clip-rule="evenodd" fill="#39373A" d="M409.2,1068.5h-25.9c-1.9,0-3.3-2-2.5-3.8
				l6.3-14.7c0.4-1,1.4-1.6,2.5-1.6l25.3,0c1.9,0,3.2,1.9,2.5,3.7l-5.7,14.7C411.3,1067.8,410.3,1068.5,409.2,1068.5z"/>
			<path id="XMLID_276_" fill-rule="evenodd" clip-rule="evenodd" fill="#39373A" d="M447.3,1068.5h-26c-1.9,0-3.2-1.9-2.5-3.7
				l5.6-14.7c0.4-1.1,1.4-1.8,2.5-1.8l25.4,0c1.9,0,3.2,1.8,2.6,3.6l-5,14.7C449.5,1067.7,448.5,1068.5,447.3,1068.5z"/>
			<path id="XMLID_275_" fill-rule="evenodd" clip-rule="evenodd" fill="#39373A" d="M939.2,1068.5H462.5c-2.6,0-4.5-2.5-3.6-5
				l4.1-12.5c0.5-1.6,2-2.6,3.6-2.6l468.9,0c1.7,0,3.2,1.1,3.7,2.7l3.7,12.5C943.6,1066,941.8,1068.5,939.2,1068.5z"/>
			<path id="XMLID_274_" fill-rule="evenodd" clip-rule="evenodd" fill="#39373A" d="M979.4,1068.5h-24.6c-1.5,0-2.8-1-3.2-2.4
				l-4.2-13.4c-0.7-2.2,1-4.4,3.2-4.4l24,0c1.4,0,2.7,0.9,3.2,2.3l4.7,13.4C983.3,1066.2,981.7,1068.5,979.4,1068.5z"/>
			<path id="XMLID_273_" fill-rule="evenodd" clip-rule="evenodd" fill="#39373A" d="M1017.4,1068.5h-24.5c-1.4,0-2.7-0.9-3.2-2.2
				l-4.8-13.4c-0.8-2.2,0.8-4.5,3.2-4.5l23.9,0c1.4,0,2.6,0.8,3.1,2.1l5.4,13.4C1021.4,1066,1019.8,1068.5,1017.4,1068.5z"/>
			<path id="XMLID_272_" fill-rule="evenodd" clip-rule="evenodd" fill="#39373A" d="M1055.4,1068.5H1031c-1.4,0-2.6-0.8-3.1-2.1
				l-5.5-13.4c-0.9-2.2,0.7-4.7,3.1-4.7l23.8,0c1.3,0,2.5,0.8,3.1,2l6,13.4C1059.4,1065.9,1057.8,1068.5,1055.4,1068.5z"/>
			<path id="XMLID_271_" fill-rule="evenodd" clip-rule="evenodd" fill="#39373A" d="M1093.3,1068.5h-24.2c-1.3,0-2.5-0.8-3.1-2
				l-6.1-13.4c-1-2.2,0.6-4.8,3.1-4.8l23.7,0c1.3,0,2.5,0.7,3,1.9l6.7,13.4C1097.5,1065.8,1095.9,1068.5,1093.3,1068.5z"/>
			<path id="XMLID_270_" fill-rule="evenodd" clip-rule="evenodd" fill="#39373A" d="M1131.3,1068.5h-24.1c-1.3,0-2.4-0.7-3-1.9
				l-6.8-13.4c-1.1-2.3,0.5-4.9,3-4.9l23.5,0c1.2,0,2.4,0.7,3,1.8l7.3,13.4C1135.5,1065.7,1133.9,1068.5,1131.3,1068.5z"/>
			<path id="XMLID_269_" fill-rule="evenodd" clip-rule="evenodd" fill="#39373A" d="M1169.3,1068.5h-23.9c-1.2,0-2.4-0.7-3-1.7
				l-7.4-13.4c-1.3-2.3,0.4-5,3-5l23.3,0c1.2,0,2.3,0.6,2.9,1.6l8,13.4C1173.5,1065.6,1171.9,1068.5,1169.3,1068.5z"/>
			<path id="XMLID_268_" fill-rule="evenodd" clip-rule="evenodd" fill="#39373A" d="M358.8,1014.5l-22.1,0c-2.5,0-4.1-2.6-2.9-4.8
				l7.3-13.9c0.6-1.1,1.7-1.8,2.9-1.8l21.5,0c2.4,0,4,2.5,3,4.7l-6.7,13.9C361.2,1013.8,360,1014.5,358.8,1014.5z"/>
			<path id="XMLID_267_" fill-rule="evenodd" clip-rule="evenodd" fill="#39373A" d="M394.2,1014.5l-22.2,0c-2.4,0-4-2.5-3-4.7
				l6.6-13.9c0.5-1.1,1.7-1.9,3-1.9l21.7,0c2.4,0,4,2.4,3,4.6l-6,13.9C396.7,1013.7,395.5,1014.5,394.2,1014.5z"/>
			<path id="XMLID_266_" fill-rule="evenodd" clip-rule="evenodd" fill="#39373A" d="M429.6,1014.5l-22.4,0c-2.4,0-4-2.4-3-4.6
				l5.9-13.9c0.5-1.2,1.7-2,3-2l21.8,0c2.3,0,3.9,2.3,3.1,4.5l-5.4,13.9C432.2,1013.7,431,1014.5,429.6,1014.5z"/>
			<path id="XMLID_265_" fill-rule="evenodd" clip-rule="evenodd" fill="#39373A" d="M465.1,1014.5l-22.5,0c-2.3,0-3.9-2.3-3.1-4.5
				l5.2-13.9c0.5-1.3,1.7-2.1,3.1-2.1l21.9,0c2.2,0,3.8,2.2,3.1,4.3l-4.7,13.9C467.7,1013.6,466.5,1014.5,465.1,1014.5z"/>
			<path id="XMLID_264_" fill-rule="evenodd" clip-rule="evenodd" fill="#39373A" d="M500.5,1014.5l-22.6,0c-2.2,0-3.8-2.2-3.1-4.3
				l4.6-13.9c0.4-1.4,1.7-2.3,3.1-2.3l22,0c2.2,0,3.8,2.1,3.2,4.2l-4,13.9C503.3,1013.5,502,1014.5,500.5,1014.5z"/>
			<path id="XMLID_263_" fill-rule="evenodd" clip-rule="evenodd" fill="#39373A" d="M535.9,1014.5l-22.7,0c-2.2,0-3.8-2.1-3.2-4.2
				l3.9-13.9c0.4-1.4,1.7-2.4,3.2-2.4l22.1,0c2.1,0,3.7,2,3.2,4.1l-3.3,13.9C538.8,1013.5,537.4,1014.5,535.9,1014.5z"/>
			<path id="XMLID_262_" fill-rule="evenodd" clip-rule="evenodd" fill="#39373A" d="M571.3,1014.5l-22.8,0c-2.1,0-3.7-2-3.2-4
				l3.2-13.9c0.3-1.5,1.7-2.6,3.2-2.6l22.2,0c2.1,0,3.6,1.9,3.2,3.9l-2.6,13.9C574.3,1013.4,572.9,1014.5,571.3,1014.5z"/>
			<path id="XMLID_261_" fill-rule="evenodd" clip-rule="evenodd" fill="#39373A" d="M607.2,1014.5l-23.9,0c-1.7,0-3-1.6-2.7-3.3
				l2.7-14.9c0.2-1.3,1.4-2.3,2.7-2.3l23.3,0c1.7,0,3,1.5,2.7,3.2l-2.1,14.9C609.8,1013.5,608.6,1014.5,607.2,1014.5z"/>
			<path id="XMLID_260_" fill-rule="evenodd" clip-rule="evenodd" fill="#39373A" d="M642.6,1014.5l-23.9,0c-1.7,0-3-1.5-2.8-3.1
				l2-14.9c0.2-1.4,1.4-2.4,2.8-2.4l23.3,0c1.6,0,2.9,1.4,2.8,3l-1.4,14.9C645.3,1013.4,644.1,1014.5,642.6,1014.5z"/>
			<path id="XMLID_259_" fill-rule="evenodd" clip-rule="evenodd" fill="#39373A" d="M678,1014.5l-24,0c-1.6,0-2.9-1.4-2.8-3
				l1.2-14.9c0.1-1.4,1.3-2.5,2.8-2.5l23.3,0c1.6,0,2.8,1.3,2.8,2.9l-0.6,14.9C680.8,1013.3,679.5,1014.5,678,1014.5z"/>
			<path id="XMLID_258_" fill-rule="evenodd" clip-rule="evenodd" fill="#39373A" d="M713.5,1014.5l-24,0c-1.6,0-2.8-1.3-2.8-2.9
				l0.5-14.9c0-1.5,1.3-2.7,2.8-2.7l23.3,0c1.5,0,2.8,1.2,2.8,2.8l0.1,14.9C716.2,1013.2,715,1014.5,713.5,1014.5z"/>
			<path id="XMLID_257_" fill-rule="evenodd" clip-rule="evenodd" fill="#39373A" d="M748.9,1014.5l-24,0c-1.5,0-2.8-1.2-2.8-2.7
				l-0.2-14.9c0-1.5,1.2-2.8,2.8-2.8l23.3,0c1.5,0,2.7,1.1,2.8,2.6l0.8,14.9C751.7,1013.2,750.5,1014.5,748.9,1014.5z"/>
			<path id="XMLID_256_" fill-rule="evenodd" clip-rule="evenodd" fill="#39373A" d="M784.3,1014.5l-23.9,0c-1.5,0-2.7-1.1-2.8-2.6
				l-1-14.9c-0.1-1.6,1.2-3,2.8-3l23.3,0c1.4,0,2.6,1.1,2.8,2.5l1.6,14.9C787.2,1013.1,785.9,1014.5,784.3,1014.5z"/>
			<path id="XMLID_255_" fill-rule="evenodd" clip-rule="evenodd" fill="#39373A" d="M819.7,1014.5l-23.9,0c-1.4,0-2.6-1.1-2.8-2.5
				l-1.7-14.9c-0.2-1.6,1.1-3.1,2.8-3.1l23.3,0c1.4,0,2.5,1,2.7,2.3l2.3,14.9C822.7,1013,821.4,1014.5,819.7,1014.5z"/>
			<path id="XMLID_254_" fill-rule="evenodd" clip-rule="evenodd" fill="#39373A" d="M855,1014.5l-23.7,0c-1.4,0-2.6-1-2.8-2.4
				l-2.4-14.8c-0.3-1.7,1-3.3,2.8-3.3l23.1,0c1.3,0,2.5,0.9,2.8,2.3l3,14.8C858.1,1012.8,856.8,1014.5,855,1014.5z"/>
			<path id="XMLID_253_" fill-rule="evenodd" clip-rule="evenodd" fill="#39373A" d="M890.4,1014.5l-23.7,0c-1.3,0-2.5-0.9-2.8-2.2
				l-3.1-14.8c-0.4-1.8,1-3.4,2.8-3.4l23.1,0c1.3,0,2.4,0.9,2.7,2.1l3.8,14.8C893.6,1012.8,892.2,1014.5,890.4,1014.5z"/>
			<path id="XMLID_252_" fill-rule="evenodd" clip-rule="evenodd" fill="#39373A" d="M925.8,1014.5l-23.6,0c-1.3,0-2.4-0.9-2.7-2.1
				l-3.9-14.8c-0.5-1.8,0.9-3.6,2.7-3.6l23,0c1.2,0,2.4,0.8,2.7,2l4.5,14.8C929,1012.7,927.7,1014.5,925.8,1014.5z"/>
			<path id="XMLID_251_" fill-rule="evenodd" clip-rule="evenodd" fill="#39373A" d="M961.2,1014.5l-23.5,0c-1.2,0-2.3-0.8-2.7-2
				l-4.6-14.8c-0.6-1.8,0.8-3.7,2.7-3.7l22.9,0c1.2,0,2.3,0.8,2.7,1.9l5.2,14.8C964.5,1012.6,963.1,1014.5,961.2,1014.5z"/>
			<path id="XMLID_250_" fill-rule="evenodd" clip-rule="evenodd" fill="#39373A" d="M996.5,1014.5l-23.5,0c-1.2,0-2.3-0.7-2.7-1.9
				l-5.3-14.8c-0.7-1.8,0.7-3.8,2.7-3.8l22.8,0c1.2,0,2.2,0.7,2.6,1.8l5.9,14.8C999.9,1012.5,998.5,1014.5,996.5,1014.5z"/>
			<path id="XMLID_249_" fill-rule="evenodd" clip-rule="evenodd" fill="#39373A" d="M1031.9,1014.5l-23.3,0c-1.2,0-2.2-0.7-2.6-1.8
				l-6.1-14.8c-0.8-1.9,0.6-3.9,2.6-3.9l22.7,0c1.1,0,2.1,0.7,2.6,1.7l6.7,14.8C1035.3,1012.4,1034,1014.5,1031.9,1014.5z"/>
			<path id="XMLID_248_" fill-rule="evenodd" clip-rule="evenodd" fill="#39373A" d="M1067.3,1014.5l-23.2,0c-1.1,0-2.1-0.6-2.6-1.7
				l-6.8-14.8c-0.9-1.9,0.5-4,2.6-4l22.6,0c1.1,0,2.1,0.6,2.5,1.6l7.4,14.8C1070.7,1012.3,1069.4,1014.5,1067.3,1014.5z"/>
			<path id="XMLID_247_" fill-rule="evenodd" clip-rule="evenodd" fill="#39373A" d="M1102.6,1014.5l-23.1,0c-1.1,0-2-0.6-2.5-1.6
				l-7.5-14.8c-1-1.9,0.4-4.1,2.5-4.1l22.5,0c1,0,2,0.6,2.5,1.5l8.1,14.8C1106.2,1012.2,1104.8,1014.5,1102.6,1014.5z"/>
			<path id="XMLID_246_" fill-rule="evenodd" clip-rule="evenodd" fill="#39373A" d="M1155,1042.6l-24,0c-1,0-2-0.6-2.5-1.4
				l-24.1-42.9c-1.1-1.9,0.3-4.2,2.5-4.2l22.4,0c1,0,1.9,0.5,2.4,1.4l25.8,42.9C1158.5,1040.1,1157.2,1042.6,1155,1042.6z"/>
			<path id="XMLID_245_" fill-rule="evenodd" clip-rule="evenodd" fill="#39373A" d="M345.8,1042.6l-25.5,0c-1.7,0-2.9-1.8-2-3.4
				l8.2-15.7c0.4-0.8,1.2-1.2,2-1.2l24.8,0c1.7,0,2.8,1.8,2.1,3.3l-7.6,15.7C347.5,1042.1,346.7,1042.6,345.8,1042.6z"/>
			<path id="XMLID_244_" fill-rule="evenodd" clip-rule="evenodd" fill="#39373A" d="M382.6,1042.6l-25.6,0c-1.7,0-2.8-1.8-2.1-3.3
				l7.5-15.7c0.4-0.8,1.2-1.3,2.1-1.3l24.9,0c1.7,0,2.8,1.7,2.1,3.2l-6.8,15.7C384.4,1042,383.6,1042.6,382.6,1042.6z"/>
			<path id="XMLID_243_" fill-rule="evenodd" clip-rule="evenodd" fill="#39373A" d="M419.5,1042.6l-25.7,0c-1.7,0-2.8-1.7-2.1-3.2
				l6.7-15.7c0.4-0.9,1.2-1.4,2.1-1.4l25,0c1.6,0,2.7,1.6,2.2,3.1l-6,15.7C421.3,1042,420.4,1042.6,419.5,1042.6z"/>
			<path id="XMLID_242_" fill-rule="evenodd" clip-rule="evenodd" fill="#39373A" d="M456.3,1042.6l-25.8,0c-1.6,0-2.7-1.6-2.2-3.1
				l5.9-15.7c0.3-0.9,1.2-1.5,2.2-1.5l25.1,0c1.6,0,2.7,1.6,2.2,3.1l-5.3,15.7C458.2,1041.9,457.3,1042.6,456.3,1042.6z"/>
			<path id="XMLID_241_" fill-rule="evenodd" clip-rule="evenodd" fill="#39373A" d="M493.6,1042.6l-27.1,0c-1.2,0-2-1.1-1.6-2.3
				l5.5-16.8c0.2-0.7,0.9-1.2,1.6-1.2l26.4,0c1.1,0,2,1.1,1.7,2.2l-4.8,16.8C495.1,1042.1,494.4,1042.6,493.6,1042.6z"/>
			<path id="XMLID_240_" fill-rule="evenodd" clip-rule="evenodd" fill="#39373A" d="M530.5,1042.6l-27.1,0c-1.1,0-2-1.1-1.7-2.2
				l4.7-16.8c0.2-0.7,0.9-1.3,1.7-1.3l26.4,0c1.1,0,1.9,1,1.7,2.1l-4,16.8C532,1042,531.3,1042.6,530.5,1042.6z"/>
			<path id="XMLID_239_" fill-rule="evenodd" clip-rule="evenodd" fill="#39373A" d="M567.3,1042.6l-27.2,0c-1.1,0-1.9-1-1.7-2.1
				l3.9-16.8c0.2-0.8,0.9-1.3,1.7-1.3l26.5,0c1.1,0,1.9,1,1.7,2l-3.2,16.8C568.9,1042,568.2,1042.6,567.3,1042.6z"/>
			<path id="XMLID_238_" fill-rule="evenodd" clip-rule="evenodd" fill="#39373A" d="M604.2,1042.6l-27.2,0c-1.1,0-1.9-1-1.7-2
				l3-16.8c0.1-0.8,0.9-1.4,1.7-1.4l26.5,0c1,0,1.9,0.9,1.7,2l-2.4,16.8C605.8,1041.9,605,1042.6,604.2,1042.6z"/>
			<path id="XMLID_237_" fill-rule="evenodd" clip-rule="evenodd" fill="#39373A" d="M641,1042.6l-27.2,0c-1,0-1.8-0.9-1.7-2
				l2.2-16.8c0.1-0.9,0.8-1.5,1.7-1.5l26.5,0c1,0,1.8,0.9,1.7,1.9l-1.5,16.8C642.7,1041.9,641.9,1042.6,641,1042.6z"/>
			<path id="XMLID_236_" fill-rule="evenodd" clip-rule="evenodd" fill="#39373A" d="M677.9,1042.6l-27.2,0c-1,0-1.8-0.9-1.7-1.9
				l1.4-16.8c0.1-0.9,0.8-1.6,1.7-1.6l26.6,0c1,0,1.8,0.8,1.7,1.8l-0.7,16.8C679.6,1041.8,678.8,1042.6,677.9,1042.6z"/>
			<path id="XMLID_235_" fill-rule="evenodd" clip-rule="evenodd" fill="#39373A" d="M714.7,1042.6l-27.2,0c-1,0-1.8-0.8-1.7-1.8
				l0.6-16.8c0-0.9,0.8-1.7,1.7-1.7l26.6,0c0.9,0,1.7,0.8,1.7,1.7l0.1,16.8C716.5,1041.8,715.7,1042.6,714.7,1042.6z"/>
			<path id="XMLID_234_" fill-rule="evenodd" clip-rule="evenodd" fill="#39373A" d="M751.6,1042.6l-27.3,0c-0.9,0-1.7-0.8-1.7-1.7
				l-0.3-16.8c0-1,0.8-1.8,1.7-1.8l26.6,0c0.9,0,1.7,0.7,1.7,1.6l1,16.8C753.4,1041.7,752.6,1042.6,751.6,1042.6z"/>
			<path id="XMLID_233_" fill-rule="evenodd" clip-rule="evenodd" fill="#39373A" d="M787.8,1042.6l-26.1,0c-1.2,0-2.2-0.9-2.3-2.1
				l-1-15.8c-0.1-1.3,0.9-2.4,2.3-2.4l25.5,0c1.2,0,2.1,0.9,2.2,2l1.7,15.8C790.2,1041.4,789.2,1042.6,787.8,1042.6z"/>
			<path id="XMLID_232_" fill-rule="evenodd" clip-rule="evenodd" fill="#39373A" d="M824.6,1042.6l-26.1,0c-1.1,0-2.1-0.9-2.2-2
				l-1.8-15.8c-0.2-1.3,0.9-2.5,2.2-2.5l25.5,0c1.1,0,2.1,0.8,2.2,1.9l2.4,15.8C827.1,1041.3,826,1042.6,824.6,1042.6z"/>
			<path id="XMLID_231_" fill-rule="evenodd" clip-rule="evenodd" fill="#39373A" d="M861.4,1042.6l-26.1,0c-1.1,0-2.1-0.8-2.2-1.9
				l-2.6-15.8c-0.2-1.4,0.8-2.6,2.2-2.6l25.4,0c1.1,0,2,0.8,2.2,1.8l3.2,15.8C863.9,1041.2,862.9,1042.6,861.4,1042.6z"/>
			<path id="XMLID_230_" fill-rule="evenodd" clip-rule="evenodd" fill="#39373A" d="M898.2,1042.6l-26,0c-1.1,0-2-0.7-2.2-1.8
				l-3.4-15.8c-0.3-1.4,0.8-2.7,2.2-2.7l25.4,0c1,0,1.9,0.7,2.2,1.7l4,15.8C900.8,1041.2,899.7,1042.6,898.2,1042.6z"/>
			<path id="XMLID_229_" fill-rule="evenodd" clip-rule="evenodd" fill="#39373A" d="M935,1042.6l-26,0c-1,0-1.9-0.7-2.2-1.7
				l-4.1-15.8c-0.4-1.4,0.7-2.8,2.2-2.8l25.3,0c1,0,1.9,0.7,2.2,1.6l4.8,15.8C937.6,1041.1,936.6,1042.6,935,1042.6z"/>
			<path id="XMLID_228_" fill-rule="evenodd" clip-rule="evenodd" fill="#39373A" d="M971.8,1042.6l-25.9,0c-1,0-1.9-0.6-2.2-1.6
				l-4.9-15.8c-0.5-1.5,0.6-2.9,2.2-2.9l25.3,0c1,0,1.8,0.6,2.1,1.5l5.6,15.8C974.5,1041,973.4,1042.6,971.8,1042.6z"/>
			<path id="XMLID_227_" fill-rule="evenodd" clip-rule="evenodd" fill="#39373A" d="M1008.6,1042.6l-25.9,0c-1,0-1.8-0.6-2.1-1.5
				l-5.7-15.8c-0.5-1.5,0.6-3,2.1-3l25.2,0c0.9,0,1.8,0.6,2.1,1.4l6.3,15.8C1011.3,1040.9,1010.2,1042.6,1008.6,1042.6z"/>
			<path id="XMLID_226_" fill-rule="evenodd" clip-rule="evenodd" fill="#39373A" d="M1045.4,1042.6l-25.8,0c-0.9,0-1.7-0.6-2.1-1.4
				l-6.5-15.8c-0.6-1.5,0.5-3.1,2.1-3.1l25.1,0c0.9,0,1.7,0.5,2.1,1.3l7.1,15.8C1048.2,1040.9,1047.1,1042.6,1045.4,1042.6z"/>
			<path id="XMLID_225_" fill-rule="evenodd" clip-rule="evenodd" fill="#39373A" d="M1082.2,1042.6l-25.7,0c-0.9,0-1.7-0.5-2.1-1.3
				l-7.2-15.8c-0.7-1.5,0.4-3.2,2.1-3.2l25,0c0.9,0,1.6,0.5,2,1.3l7.9,15.8C1085,1040.8,1083.9,1042.6,1082.2,1042.6z"/>
			<path id="XMLID_224_" fill-rule="evenodd" clip-rule="evenodd" fill="#39373A" d="M1119,1042.6l-25.6,0c-0.9,0-1.6-0.5-2-1.2
				l-8-15.8c-0.8-1.5,0.3-3.3,2-3.3l24.9,0c0.8,0,1.6,0.4,2,1.2l8.7,15.8C1121.8,1040.7,1120.7,1042.6,1119,1042.6z"/>
		</g>
		<linearGradient id="XMLID_325_" gradientUnits="userSpaceOnUse" x1="267.0515" y1="345.8991" x2="1137.6731" y2="345.8991">
			<stop  offset="0" style="stop-color:#5C000A"/>
			<stop  offset="1" style="stop-color:#98051B"/>
		</linearGradient>
		<polygon id="XMLID_223_" fill="url(#XMLID_325_)" points="1137.7,359.5 267.1,361 267.1,330.8 1137.7,330.8 		"/>
		<linearGradient id="XMLID_326_" gradientUnits="userSpaceOnUse" x1="225.5077" y1="479.8861" x2="225.5077" y2="512.2007">
			<stop  offset="0" style="stop-color:#98051B"/>
			<stop  offset="1" style="stop-color:#AD0537"/>
		</linearGradient>
		<path id="XMLID_222_" fill="url(#XMLID_326_)" d="M265,473.1c0-18.5-0.1-22.5-21.9-22.5c-21.8,0-57.1,20.5-57.1,22.5
			c0,18.5,17.7,42,39.5,42C247.3,515.2,265,491.7,265,473.1"/>
		<path id="XMLID_221_" fill="#D1D3D4" d="M344.1,473.1c0-18.5-17.7-33.6-39.5-33.6c-21.8,0-39.5,15-39.5,33.6
			c0,18.5,17.7,42,39.5,42C326.4,515.2,344.1,491.7,344.1,473.1"/>
		<linearGradient id="XMLID_327_" gradientUnits="userSpaceOnUse" x1="383.6654" y1="479.8861" x2="383.6654" y2="512.2007">
			<stop  offset="0" style="stop-color:#98051B"/>
			<stop  offset="1" style="stop-color:#AD0537"/>
		</linearGradient>
		<path id="XMLID_220_" fill="url(#XMLID_327_)" d="M423.2,473.1c0-18.5-17.7-33.6-39.5-33.6c-21.8,0-39.5,15-39.5,33.6
			c0,18.5,17.7,42,39.5,42C405.5,515.2,423.2,491.7,423.2,473.1"/>
		<path id="XMLID_219_" fill="#D1D3D4" d="M502.2,473.1c0-18.5-17.7-33.6-39.5-33.6c-21.8,0-39.5,15-39.5,33.6
			c0,18.5,17.7,42,39.5,42C484.5,515.2,502.2,491.7,502.2,473.1"/>
		<linearGradient id="XMLID_328_" gradientUnits="userSpaceOnUse" x1="542.1085" y1="479.8861" x2="542.1085" y2="512.2007">
			<stop  offset="0" style="stop-color:#98051B"/>
			<stop  offset="1" style="stop-color:#AD0537"/>
		</linearGradient>
		<path id="XMLID_218_" fill="url(#XMLID_328_)" d="M581.6,473.1c0-18.5-17.7-33.6-39.5-33.6c-21.8,0-39.5,15-39.5,33.6
			c0,18.5,17.7,42,39.5,42C563.9,515.2,581.6,491.7,581.6,473.1"/>
		<path id="XMLID_217_" fill="#D1D3D4" d="M660.7,473.1c0-18.5-17.7-33.6-39.5-33.6c-21.8,0-39.5,15-39.5,33.6
			c0,18.5,17.7,42,39.5,42C643,515.2,660.7,491.7,660.7,473.1"/>
		<linearGradient id="XMLID_329_" gradientUnits="userSpaceOnUse" x1="700.1704" y1="479.8861" x2="700.1704" y2="512.2007">
			<stop  offset="0" style="stop-color:#98051B"/>
			<stop  offset="1" style="stop-color:#AD0537"/>
		</linearGradient>
		<path id="XMLID_216_" fill="url(#XMLID_329_)" d="M739.7,473.1c0-18.5-17.7-33.6-39.5-33.6c-21.8,0-39.5,15-39.5,33.6
			c0,18.5,17.7,42,39.5,42C722,515.2,739.7,491.7,739.7,473.1"/>
		<path id="XMLID_215_" fill="#D1D3D4" d="M818.7,473.1c0-18.5-17.7-33.6-39.5-33.6c-21.8,0-39.5,15-39.5,33.6
			c0,18.5,17.7,42,39.5,42C801.1,515.2,818.7,491.7,818.7,473.1"/>
		<linearGradient id="XMLID_330_" gradientUnits="userSpaceOnUse" x1="858.3259" y1="479.8861" x2="858.3259" y2="512.2007">
			<stop  offset="0" style="stop-color:#98051B"/>
			<stop  offset="1" style="stop-color:#AD0537"/>
		</linearGradient>
		<path id="XMLID_214_" fill="url(#XMLID_330_)" d="M897.8,473.1c0-18.5-17.7-33.6-39.5-33.6c-21.8,0-39.5,15-39.5,33.6
			c0,18.5,17.7,42,39.5,42C880.1,515.2,897.8,491.7,897.8,473.1"/>
		<path id="XMLID_213_" fill="#D1D3D4" d="M976.9,473.1c0-18.5-17.7-33.6-39.5-33.6c-21.8,0-39.5,15-39.5,33.6
			c0,18.5,17.7,42,39.5,42C959.2,515.2,976.9,491.7,976.9,473.1"/>
		<linearGradient id="XMLID_331_" gradientUnits="userSpaceOnUse" x1="1016.481" y1="479.8861" x2="1016.481" y2="512.2007">
			<stop  offset="0" style="stop-color:#98051B"/>
			<stop  offset="1" style="stop-color:#AD0537"/>
		</linearGradient>
		<path id="XMLID_212_" fill="url(#XMLID_331_)" d="M1056,473.1c0-18.5-17.7-33.6-39.5-33.6c-21.8,0-39.5,15-39.5,33.6
			c0,18.5,17.7,42,39.5,42C1038.3,515.2,1056,491.7,1056,473.1"/>
		<linearGradient id="XMLID_332_" gradientUnits="userSpaceOnUse" x1="1174.3971" y1="479.8861" x2="1174.3971" y2="512.2007">
			<stop  offset="0" style="stop-color:#98051B"/>
			<stop  offset="1" style="stop-color:#AD0537"/>
		</linearGradient>
		<path id="XMLID_211_" fill="url(#XMLID_332_)" d="M1213.9,473c0-1.6-28.8-22.2-50.6-22.2c-21.8,0-28.4,3.6-28.4,22.2
			c0,18.5,17.7,42,39.5,42C1196.2,515,1213.9,491.5,1213.9,473"/>
		<path id="XMLID_210_" fill="#D1D3D4" d="M1135.1,473.1c0-18.5-17.7-33.6-39.5-33.6c-21.8,0-39.5,15-39.5,33.6
			c0,18.5,17.7,42,39.5,42C1117.4,515.2,1135.1,491.7,1135.1,473.1"/>
		<polygon id="XMLID_209_" fill-rule="evenodd" clip-rule="evenodd" fill="#FFFFFF" points="186,473.1 1212.3,473.1 1126.8,340.5 
			271.9,340.5 		"/>
		<g>
			<defs>
				<polygon id="XMLID_207_" points="337.8,340.5 271.9,340.5 186,473.3 265.1,473.3 				"/>
			</defs>
			<clipPath id="XMLID_333_">
				<use xlink:href="#XMLID_207_"  overflow="visible"/>
			</clipPath>
			<linearGradient id="XMLID_334_" gradientUnits="userSpaceOnUse" x1="261.8841" y1="305.9615" x2="261.8841" y2="502.074">
				<stop  offset="0" style="stop-color:#AD0537"/>
				<stop  offset="1" style="stop-color:#ED1A37"/>
			</linearGradient>
			<rect id="XMLID_208_" x="186" y="340.5" clip-path="url(#XMLID_333_)" fill="url(#XMLID_334_)" width="151.7" height="132.8"/>
		</g>
		<g>
			<defs>
				<polygon id="XMLID_205_" points="469.5,340.5 403.6,340.5 344.2,473.3 423.3,473.3 				"/>
			</defs>
			<clipPath id="XMLID_335_">
				<use xlink:href="#XMLID_205_"  overflow="visible"/>
			</clipPath>
			<linearGradient id="XMLID_336_" gradientUnits="userSpaceOnUse" x1="406.8233" y1="303.5935" x2="406.8233" y2="506.024">
				<stop  offset="0" style="stop-color:#AD0537"/>
				<stop  offset="1" style="stop-color:#ED1A37"/>
			</linearGradient>
			<rect id="XMLID_206_" x="344.2" y="340.5" clip-path="url(#XMLID_335_)" fill="url(#XMLID_336_)" width="125.3" height="132.8"/>
		</g>
		<g>
			<defs>
				<polygon id="XMLID_203_" points="601.2,340.5 535.3,340.5 502.3,473.3 581.4,473.3 				"/>
			</defs>
			<clipPath id="XMLID_337_">
				<use xlink:href="#XMLID_203_"  overflow="visible"/>
			</clipPath>
			<linearGradient id="XMLID_338_" gradientUnits="userSpaceOnUse" x1="551.7601" y1="301.2204" x2="551.7601" y2="509.9689">
				<stop  offset="0" style="stop-color:#AD0537"/>
				<stop  offset="1" style="stop-color:#ED1A37"/>
			</linearGradient>
			<rect id="XMLID_204_" x="502.3" y="340.5" clip-path="url(#XMLID_337_)" fill="url(#XMLID_338_)" width="98.9" height="132.8"/>
		</g>
		<g>
			<defs>
				<polygon id="XMLID_201_" points="660.5,473.3 739.5,473.3 732.9,340.5 667.1,340.5 				"/>
			</defs>
			<clipPath id="XMLID_339_">
				<use xlink:href="#XMLID_201_"  overflow="visible"/>
			</clipPath>
			<linearGradient id="XMLID_340_" gradientUnits="userSpaceOnUse" x1="699.9968" y1="298.8474" x2="699.9968" y2="513.9188">
				<stop  offset="0" style="stop-color:#AD0537"/>
				<stop  offset="1" style="stop-color:#ED1A37"/>
			</linearGradient>
			<rect id="XMLID_202_" x="660.5" y="340.5" clip-path="url(#XMLID_339_)" fill="url(#XMLID_340_)" width="79.1" height="132.8"/>
		</g>
		<g>
			<defs>
				<polygon id="XMLID_199_" points="864.7,340.5 798.8,340.5 818.6,473.3 897.7,473.3 				"/>
			</defs>
			<clipPath id="XMLID_341_">
				<use xlink:href="#XMLID_199_"  overflow="visible"/>
			</clipPath>
			<linearGradient id="XMLID_342_" gradientUnits="userSpaceOnUse" x1="848.2403" y1="296.4745" x2="848.2403" y2="517.8688">
				<stop  offset="0" style="stop-color:#AD0537"/>
				<stop  offset="1" style="stop-color:#ED1A37"/>
			</linearGradient>
			<rect id="XMLID_200_" x="798.8" y="340.5" clip-path="url(#XMLID_341_)" fill="url(#XMLID_342_)" width="98.9" height="132.8"/>
		</g>
		<g>
			<defs>
				<polygon id="XMLID_197_" points="976.7,473.3 1055.8,473.3 996.4,340.5 930.5,340.5 				"/>
			</defs>
			<clipPath id="XMLID_343_">
				<use xlink:href="#XMLID_197_"  overflow="visible"/>
			</clipPath>
			<linearGradient id="XMLID_344_" gradientUnits="userSpaceOnUse" x1="993.1743" y1="294.1015" x2="993.1743" y2="521.8137">
				<stop  offset="0" style="stop-color:#AD0537"/>
				<stop  offset="1" style="stop-color:#ED1A37"/>
			</linearGradient>
			<rect id="XMLID_198_" x="930.5" y="340.5" clip-path="url(#XMLID_343_)" fill="url(#XMLID_344_)" width="125.3" height="132.9"/>
		</g>
		<g>
			<defs>
				<polygon id="XMLID_195_" points="1128.1,340.5 1062.2,340.5 1134.9,473.3 1214,473.3 				"/>
			</defs>
			<clipPath id="XMLID_345_">
				<use xlink:href="#XMLID_195_"  overflow="visible"/>
			</clipPath>
			<linearGradient id="XMLID_346_" gradientUnits="userSpaceOnUse" x1="1138.1136" y1="291.7285" x2="1138.1136" y2="525.7637">
				<stop  offset="0" style="stop-color:#AD0537"/>
				<stop  offset="1" style="stop-color:#ED1A37"/>
			</linearGradient>
			
				<rect id="XMLID_196_" x="1062.2" y="340.5" clip-path="url(#XMLID_345_)" fill="url(#XMLID_346_)" width="151.7" height="132.9"/>
		</g>
		
			<text id="XMLID_194_" transform="matrix(1 0 0 1 342.8633 300.332)" fill="#FFFFFF" font-family="'TitilliumWeb-BoldItalic'" font-size="65.9395px">ONLINE SHOPPING CENTER</text>
		
			<rect id="XMLID_193_" x="390.8" y="528.1" opacity="0.58" fill-rule="evenodd" clip-rule="evenodd" fill="#FFFFFF" width="189.2" height="101.3"/>
		
			<rect id="XMLID_192_" x="605.4" y="528.1" opacity="0.58" fill-rule="evenodd" clip-rule="evenodd" fill="#FFFFFF" width="189.2" height="101.3"/>
		
			<rect id="XMLID_191_" x="819.9" y="528.1" opacity="0.58" fill-rule="evenodd" clip-rule="evenodd" fill="#FFFFFF" width="189.2" height="101.3"/>
		
			<rect id="XMLID_190_" x="390.8" y="649.4" opacity="0.58" fill-rule="evenodd" clip-rule="evenodd" fill="#FFFFFF" width="189.2" height="101.3"/>
		
			<rect id="XMLID_189_" x="605.4" y="649.4" opacity="0.58" fill-rule="evenodd" clip-rule="evenodd" fill="#FFFFFF" width="189.2" height="101.3"/>
		
			<rect id="XMLID_188_" x="819.9" y="649.4" opacity="0.58" fill-rule="evenodd" clip-rule="evenodd" fill="#FFFFFF" width="189.2" height="101.3"/>
		
			<rect id="XMLID_187_" x="390.8" y="770.6" opacity="0.58" fill-rule="evenodd" clip-rule="evenodd" fill="#FFFFFF" width="189.2" height="101.3"/>
		
			<rect id="XMLID_186_" x="605.4" y="770.6" opacity="0.58" fill-rule="evenodd" clip-rule="evenodd" fill="#FFFFFF" width="189.2" height="101.3"/>
		
			<rect id="XMLID_185_" x="819.9" y="770.6" opacity="0.58" fill-rule="evenodd" clip-rule="evenodd" fill="#FFFFFF" width="189.2" height="101.3"/>
		<path id="XMLID_184_" fill-rule="evenodd" clip-rule="evenodd" fill="#C44735" d="M684.3,826.4c6.7,0.9,20.6,4.1,44.7,3
			c16.4-1.1,23.8,5.4,23.8,13c0,10-13.8,15.8-30.5,13.8c-21.9-2.1-31.3,3.4-43.9,2c-13.3-1.5-31.3-10.6-31.3-17.3
			c0-7.4,14.5-12.2,21.1-13.5C671.9,826.7,677.3,825.5,684.3,826.4"/>
		<path id="XMLID_183_" fill-rule="evenodd" clip-rule="evenodd" fill="#BBA482" d="M727.7,833.6h0.7c4.1,0,11.8-1.2,17.9,2.3
			c5.6,3.2,4.7,12.2-2.3,14.6c-7.7,2.6-13.4,2.6-24.8,1c-4.7-0.7-8,0.3-15.3,1.5c-4.4,0.7-8,1.6-12.6,2.3c-4.1,0.5-9.7-0.1-13.5-1.7
			c-4.9-2.1-6.1-6.3-6.1-11.2c0-9.7,7-12.8,15-13.2c7.9-0.5,16.8,1.5,21.1,2.1C718.1,832.7,719.2,833.6,727.7,833.6L727.7,833.6z"/>
		<path fill-rule="evenodd" clip-rule="evenodd" fill="#181412" d="M671.7,842.4C671.7,842.4,671.7,842.4,671.7,842.4
			C671.7,842.4,671.7,842.4,671.7,842.4 M671.9,845.1c-0.1-0.8-0.1-1.7-0.1-2.6C671.7,843.4,671.8,844.3,671.9,845.1z M692.1,829.2
			c-1-0.1-2-0.1-3-0.1c-0.8,0-1.6,0-2.4,0.1v0C688.5,829.1,690.3,829.1,692.1,829.2L692.1,829.2z M749.5,839.8
			c-0.5-1.6-1.6-3-3.2-3.9c-3.7-2.1-7.9-2.5-11.6-2.5c3.7,0,7.9,0.4,11.6,2.5C747.9,836.8,749,838.2,749.5,839.8z"/>
		<path fill-rule="evenodd" clip-rule="evenodd" fill="#AE8362" d="M691.1,833.2c0.1,0,0.1,0.1,0.2,0.1
			C691.3,833.3,691.2,833.2,691.1,833.2 M689.9,832.4c0.4,0.3,0.7,0.5,1.1,0.8C690.6,832.9,690.3,832.6,689.9,832.4z M689.6,832.2
			c0.1,0.1,0.2,0.1,0.3,0.2C689.8,832.3,689.7,832.3,689.6,832.2z M689.5,832.1c0.1,0,0.1,0.1,0.2,0.1
			C689.6,832.1,689.5,832.1,689.5,832.1z M717.1,835.2c2.5-0.4,5.1-0.9,7.7-1.3C722.2,834.3,719.6,834.7,717.1,835.2z M716.3,835.3
			c0.2,0,0.5-0.1,0.7-0.1C716.8,835.2,716.6,835.3,716.3,835.3z M750,842.4c0,0.6-0.1,1.3-0.2,1.9c-2.3-6.6-8.5-5.9-13.4-5.2
			c-6.6,1-13.3-0.2-20-1.8c-1.7-0.4-3.4-0.8-5.1-1.3c-3.7-0.9-7.3-1.8-10.9-2.3c-2.5-0.4-5.5-0.5-8.6-0.3c-1.1,0.1-2.1,0.2-3.2,0.3
			c-8.2,1.2-16.1,4.8-16.4,12.6c-0.1-0.4-0.2-0.9-0.2-1.4c-0.1-0.8-0.1-1.7-0.1-2.6c0,0,0,0,0,0c0,0,0,0,0,0c0,0,0,0,0,0
			c0-8.8,5.7-12.1,12.7-13c0.7-0.1,1.5-0.2,2.3-0.2c0,0,0,0,0,0v0l0,0c0.8,0,1.6-0.1,2.4-0.1c1,0,2,0,3,0.1
			c6.2,0.4,12.3,1.7,15.7,2.1c10,1.3,11.3,2.2,19.1,2.3c0.2,0,0.5,0,0.7,0h0h0.7c1.1,0,2.4-0.1,3.9-0.1c0.8,0,1.6,0,2.4,0
			c3.7,0,7.9,0.4,11.6,2.5c1.6,0.9,2.7,2.3,3.2,3.9C749.8,840.6,750,841.5,750,842.4L750,842.4z"/>
		<path id="XMLID_171_" fill-rule="evenodd" clip-rule="evenodd" fill="#F15D44" d="M674.6,829.4c-3.2,2.1-4.9,5-5.7,7.8
			c-6.3-1-14.4-1.1-19,2.8c1.3-3.8,10.2-7.9,18.5-9.6l0.8-0.2C670.7,830,672.5,829.6,674.6,829.4"/>
		<path id="XMLID_170_" fill-rule="evenodd" clip-rule="evenodd" fill="#C44735" d="M684.3,816.1c6.7-0.9,20.6-4.1,44.7-3
			c16.4,1.1,23.8-5.4,23.8-13c0-10-13.8-15.8-30.5-13.8c-21.9,2.1-31.3-3.4-43.9-2c-13.3,1.5-31.3,10.6-31.3,17.3
			c0,7.4,14.5,12.2,21.1,13.5C671.9,815.8,677.3,817.1,684.3,816.1"/>
		<path id="XMLID_169_" fill-rule="evenodd" clip-rule="evenodd" fill="#BBA482" d="M727.7,808.9h0.7c4.1,0,11.8,1.2,17.9-2.3
			c5.6-3.2,4.7-12.2-2.3-14.6c-7.7-2.6-13.4-2.6-24.8-1c-4.7,0.7-8-0.3-15.3-1.5c-4.4-0.7-8-1.6-12.6-2.3c-4.1-0.5-9.7,0.1-13.5,1.7
			c-4.9,2.1-6.1,6.3-6.1,11.2c0,9.7,7,12.8,15,13.2c7.9,0.5,16.8-1.5,21.1-2.1C718.1,809.9,719.2,809,727.7,808.9L727.7,808.9z"/>
		<path fill-rule="evenodd" clip-rule="evenodd" fill="#181412" d="M671.7,800.1C671.7,800.1,671.7,800.1,671.7,800.1
			C671.7,800.1,671.7,800.1,671.7,800.1 M671.9,797.5c-0.1,0.8-0.1,1.7-0.1,2.6C671.7,799.2,671.8,798.3,671.9,797.5z M692.1,813.4
			c-1,0.1-2,0.1-3,0.1c-0.8,0-1.6,0-2.4-0.1v0C688.5,813.5,690.3,813.5,692.1,813.4L692.1,813.4z M749.5,802.7
			c-0.5,1.6-1.6,3-3.2,3.9c-3.7,2.1-7.9,2.5-11.6,2.5c3.7,0,7.9-0.4,11.6-2.5C747.9,805.7,749,804.3,749.5,802.7z"/>
		<path fill-rule="evenodd" clip-rule="evenodd" fill="#AE8362" d="M691.1,809.3c0.1,0,0.1-0.1,0.2-0.1
			C691.3,809.3,691.2,809.3,691.1,809.3 M689.9,810.2c0.4-0.3,0.7-0.5,1.1-0.8C690.6,809.6,690.3,809.9,689.9,810.2z M689.6,810.4
			c0.1-0.1,0.2-0.1,0.3-0.2C689.8,810.2,689.7,810.3,689.6,810.4z M689.5,810.5c0.1,0,0.1-0.1,0.2-0.1
			C689.6,810.4,689.5,810.5,689.5,810.5z M717.1,807.4c2.5,0.4,5.1,0.9,7.7,1.3C722.2,808.3,719.6,807.8,717.1,807.4z M716.3,807.2
			c0.2,0,0.5,0.1,0.7,0.1C716.8,807.3,716.6,807.3,716.3,807.2z M750,800.1c0-0.6-0.1-1.3-0.2-1.9c-2.3,6.6-8.5,5.9-13.4,5.2
			c-6.6-1-13.3,0.2-20,1.8c-1.7,0.4-3.4,0.8-5.1,1.3c-3.7,0.9-7.3,1.8-10.9,2.3c-2.5,0.4-5.5,0.5-8.6,0.3c-1.1-0.1-2.1-0.2-3.2-0.3
			c-8.2-1.2-16.1-4.8-16.4-12.6c-0.1,0.4-0.2,0.9-0.2,1.4c-0.1,0.8-0.1,1.7-0.1,2.6c0,0,0,0,0,0c0,0,0,0,0,0c0,0,0,0,0,0
			c0,8.8,5.7,12.1,12.7,13c0.7,0.1,1.5,0.2,2.3,0.2c0,0,0,0,0,0v0l0,0c0.8,0,1.6,0.1,2.4,0.1c1,0,2,0,3-0.1
			c6.2-0.4,12.3-1.7,15.7-2.1c10-1.3,11.3-2.2,19.1-2.3c0.2,0,0.5,0,0.7,0h0h0.7c1.1,0,2.4,0.1,3.9,0.1c0.8,0,1.6,0,2.4,0
			c3.7,0,7.9-0.4,11.6-2.5c1.6-0.9,2.7-2.3,3.2-3.9C749.8,801.9,750,801,750,800.1L750,800.1z"/>
		<path id="XMLID_157_" fill-rule="evenodd" clip-rule="evenodd" fill="#F15D44" d="M674.6,813.2c-3.2-2.1-4.9-5-5.7-7.8
			c-6.3,1-14.4,1.1-19-2.8c1.3,3.8,10.2,7.9,18.5,9.6l0.8,0.2C670.7,812.6,672.5,812.9,674.6,813.2"/>
		<path id="XMLID_156_" fill-rule="evenodd" clip-rule="evenodd" fill="#201F1F" d="M882.3,677.4c0,1-0.8,1.9-1.9,1.9h-5.6
			c-1,0-1.9-0.8-1.9-1.9v-4.5c0-1,0.8-1.9,1.9-1.9h5.6c1,0,1.9,0.8,1.9,1.9V677.4z"/>
		<path id="XMLID_155_" fill-rule="evenodd" clip-rule="evenodd" fill="#201F1F" d="M957,677.4c0,1-0.8,1.9-1.9,1.9h-1.9
			c-1,0-1.9-0.8-1.9-1.9v-4.5c0-1,0.8-1.9,1.9-1.9h1.9c1,0,1.9,0.8,1.9,1.9V677.4z"/>
		<path id="XMLID_154_" fill-rule="evenodd" clip-rule="evenodd" fill="#201F1F" d="M907.1,677.4c0,1-0.8,1.9-1.9,1.9h-17.9
			c-1,0-1.9-0.8-1.9-1.9v-4.5c0-1,0.8-1.9,1.9-1.9h17.9c1,0,1.9,0.8,1.9,1.9V677.4z"/>
		<path id="XMLID_153_" fill-rule="evenodd" clip-rule="evenodd" fill="#201F1F" d="M964.9,726.9c0,1.2-0.9,2.1-2.1,2.1l-96.4,0
			c-1.2,0-2.1-0.9-2.1-2.1v-49.7c0-1.2,0.9-2.1,2.1-2.1h96.4c1.2,0,2.1,0.9,2.1,2.1V726.9z"/>
		<path id="XMLID_152_" fill-rule="evenodd" clip-rule="evenodd" fill="#EAE8E9" d="M864.3,691.1v-13.8c0-1.2,0.9-2.1,2.1-2.1h96.4
			c1.2,0,2.1,0.9,2.1,2.1v13.8H864.3z"/>
		<path id="XMLID_151_" fill-rule="evenodd" clip-rule="evenodd" fill="#201F1F" d="M900.2,680c0,1.5,1.2,2.6,2.6,2.6
			c1.5,0,2.6-1.2,2.6-2.6c0-1.5-1.2-2.6-2.6-2.6C901.4,677.4,900.2,678.6,900.2,680"/>
		<path id="XMLID_150_" fill-rule="evenodd" clip-rule="evenodd" fill="#201F1F" d="M955.5,681.4h-11c-0.7,0-1.4-0.6-1.4-1.4
			c0-0.7,0.6-1.4,1.4-1.4h11c0.7,0,1.4,0.6,1.4,1.4C956.8,680.8,956.2,681.4,955.5,681.4"/>
		<path id="XMLID_149_" fill-rule="evenodd" clip-rule="evenodd" fill="#EAE8E9" d="M864.3,724.5h100.6v2.4c0,1.2-0.9,2.1-2.1,2.1
			l-96.4,0c-1.2,0-2.1-0.9-2.1-2.1V724.5z"/>
		<path id="XMLID_148_" fill-rule="evenodd" clip-rule="evenodd" fill="#595C5D" d="M911.6,702.7h-13c-1.4,0-2.6,1.2-2.6,2.6v0.7
			c0,1.4,1.2,2.6,2.6,2.6h13c1.4,0,2.6-1.2,2.6-2.6v-0.7C914.1,703.8,913,702.7,911.6,702.7"/>
		<path id="XMLID_147_" fill-rule="evenodd" clip-rule="evenodd" fill="#B4B6B6" d="M899.2,703.1c1.3,0,2.4,1.1,2.4,2.4
			s-1.1,2.4-2.4,2.4c-1.3,0-2.4-1.1-2.4-2.4S897.9,703.1,899.2,703.1"/>
		<path id="XMLID_146_" fill-rule="evenodd" clip-rule="evenodd" fill="#BCBEC0" d="M872.2,677.7h15.1c0.8,0,1.4,0.6,1.4,1.4v7.4
			c0,0.8-0.6,1.4-1.4,1.4h-15.1c-0.8,0-1.4-0.6-1.4-1.4v-7.4C870.8,678.3,871.5,677.7,872.2,677.7"/>
		<path id="XMLID_145_" fill-rule="evenodd" clip-rule="evenodd" fill="#B4B6B6" d="M950,702.7c0,11.7-9.5,21.2-21.2,21.2
			c-11.7,0-21.2-9.5-21.2-21.2c0-11.7,9.5-21.2,21.2-21.2C940.5,681.4,950,690.9,950,702.7"/>
		<path fill-rule="evenodd" clip-rule="evenodd" fill="#595C5D" d="M928.7,691.1c-6.4,0-11.6,5.2-11.6,11.6
			c0,6.4,5.2,11.6,11.6,11.6c6.4,0,11.6-5.2,11.6-11.6C940.3,696.3,935.1,691.1,928.7,691.1 M928.7,717.5c-8.2,0-14.9-6.7-14.9-14.9
			c0-8.2,6.7-14.9,14.9-14.9c8.2,0,14.9,6.7,14.9,14.9C943.6,710.9,937,717.5,928.7,717.5L928.7,717.5z M928.7,686.4
			c-8.9,0-16.2,7.3-16.2,16.2c0,8.9,7.3,16.2,16.2,16.2c8.9,0,16.2-7.3,16.2-16.2C945,693.7,937.7,686.4,928.7,686.4z M928.7,721.5
			c-10.4,0-18.8-8.4-18.8-18.8c0-10.4,8.4-18.8,18.8-18.8c10.4,0,18.8,8.4,18.8,18.8C947.6,713.1,939.2,721.5,928.7,721.5z"/>
		<path fill-rule="evenodd" clip-rule="evenodd" fill="#3F4244" d="M928.7,687.8c-8.2,0-14.9,6.7-14.9,14.9
			c0,8.2,6.7,14.9,14.9,14.9c8.2,0,14.9-6.7,14.9-14.9C943.6,694.5,937,687.8,928.7,687.8 M928.7,718.9c-8.9,0-16.2-7.3-16.2-16.2
			c0-8.9,7.3-16.2,16.2-16.2c8.9,0,16.2,7.3,16.2,16.2C945,711.6,937.7,718.9,928.7,718.9z"/>
		<path id="XMLID_138_" fill-rule="evenodd" clip-rule="evenodd" fill="#3F4244" d="M928.7,714.2c-6.4,0-11.6-5.2-11.6-11.6
			c0-6.4,5.2-11.6,11.6-11.6c6.4,0,11.6,5.2,11.6,11.6C940.3,709,935.1,714.2,928.7,714.2"/>
		<path id="XMLID_137_" fill-rule="evenodd" clip-rule="evenodd" fill="#16191D" d="M936.7,702.7c0,4.4-3.5,7.9-7.9,7.9
			c-4.4,0-7.9-3.5-7.9-7.9c0-4.4,3.5-7.9,7.9-7.9C933.1,694.7,936.7,698.3,936.7,702.7"/>
		<path id="XMLID_136_" fill-rule="evenodd" clip-rule="evenodd" fill="#F8F0E5" d="M928.2,700.5c0,1.3-1,2.3-2.3,2.3
			c-1.3,0-2.3-1-2.3-2.3c0-1.3,1-2.3,2.3-2.3C927.2,698.2,928.2,699.2,928.2,700.5"/>
		<path id="XMLID_135_" fill-rule="evenodd" clip-rule="evenodd" fill="#F04F46" d="M504.1,663.8l-0.3-0.3
			C503.9,663.6,504,663.7,504.1,663.8"/>
		<path id="XMLID_134_" fill-rule="evenodd" clip-rule="evenodd" fill="#323334" d="M500.5,738.3h-30.1c-2,0-3.6-1.6-3.6-3.6v-69.3
			c0-2,1.6-3.6,3.6-3.6h30.1c2,0,3.6,1.6,3.6,3.6l0,69.3C504.1,736.6,502.5,738.3,500.5,738.3"/>
		<rect id="XMLID_133_" x="467.9" y="668.8" fill-rule="evenodd" clip-rule="evenodd" fill="#E49DA4" width="35" height="62.4"/>
		<path id="XMLID_132_" fill-rule="evenodd" clip-rule="evenodd" fill="#424244" d="M488.5,664.7h-6.2c-0.2,0-0.3-0.1-0.3-0.3
			c0-0.2,0.1-0.3,0.3-0.3l6.2,0c0.2,0,0.3,0.1,0.3,0.3C488.9,664.5,488.7,664.7,488.5,664.7"/>
		<path id="XMLID_131_" fill-rule="evenodd" clip-rule="evenodd" fill="#424244" d="M479.1,664.4c0,0.3-0.2,0.5-0.5,0.5
			c-0.3,0-0.5-0.2-0.5-0.5c0-0.3,0.2-0.5,0.5-0.5C478.9,663.9,479.1,664.1,479.1,664.4"/>
		<path id="XMLID_130_" fill-rule="evenodd" clip-rule="evenodd" fill="#424244" d="M480.8,664.4c0,0.3-0.2,0.5-0.5,0.5
			c-0.3,0-0.5-0.2-0.5-0.5c0-0.3,0.2-0.5,0.5-0.5C480.6,663.9,480.8,664.1,480.8,664.4"/>
		<path id="XMLID_129_" fill-rule="evenodd" clip-rule="evenodd" fill="#424244" d="M492.7,664.4c0,0.4-0.4,0.8-0.8,0.8
			c-0.4,0-0.8-0.4-0.8-0.8c0-0.4,0.4-0.8,0.8-0.8C492.3,663.6,492.7,663.9,492.7,664.4"/>
		<path id="XMLID_128_" fill-rule="evenodd" clip-rule="evenodd" fill="#424244" d="M485.4,732.5c1.3,0,2.3,1,2.3,2.3
			c0,1.3-1,2.3-2.3,2.3c-1.3,0-2.3-1-2.3-2.3C483.2,733.5,484.2,732.5,485.4,732.5"/>
		<polygon id="XMLID_127_" fill-rule="evenodd" clip-rule="evenodd" fill="#E9AEB1" points="467.9,668.8 502.9,668.8 467.9,731.2 		
			"/>
		<path id="XMLID_126_" fill-rule="evenodd" clip-rule="evenodd" fill="#FFFFFF" d="M627.7,669.9h144.7c4.4,0,8,3.6,8,8v44
			c0,4.4-3.6,8-8,8H627.7c-4.4,0-8-3.6-8-8v-44C619.6,673.6,623.3,669.9,627.7,669.9"/>
		<path id="XMLID_125_" fill-rule="evenodd" clip-rule="evenodd" fill="#DADBDB" d="M780.4,715.3v6.7c0,4.4-3.6,8-8,8H627.7
			c-4.4,0-8-3.6-8-8v-6.7H780.4z"/>
		<path id="XMLID_124_" fill-rule="evenodd" clip-rule="evenodd" fill="#AAACAF" d="M635.1,706h129.7c2.2,0,4.1,1.8,4.1,4.1v12.6
			c0,2.2-1.8,4.1-4.1,4.1H635.1c-2.2,0-4.1-1.8-4.1-4.1v-12.6C631.1,707.8,632.9,706,635.1,706"/>
		<rect id="XMLID_123_" x="631.1" y="715.3" fill-rule="evenodd" clip-rule="evenodd" fill="#585554" width="137.9" height="2.3"/>
		<rect id="XMLID_122_" x="631.1" y="719.9" fill-rule="evenodd" clip-rule="evenodd" fill="#585554" width="137.9" height="2.3"/>
		<path id="XMLID_121_" fill-rule="evenodd" clip-rule="evenodd" fill="#585554" d="M631.5,724.5h137c-0.7,1.3-2.1,2.3-3.7,2.3
			H635.1C633.5,726.8,632.2,725.8,631.5,724.5"/>
		<path id="XMLID_120_" fill-rule="evenodd" clip-rule="evenodd" fill="#DADBDB" d="M689.4,698.8h21.3c0.4,0,0.7,0.3,0.7,0.7v1.5
			c0,0.4-0.3,0.7-0.7,0.7h-21.3c-0.4,0-0.7-0.3-0.7-0.7v-1.5C688.6,699.1,689,698.8,689.4,698.8"/>
		<path id="XMLID_119_" fill-rule="evenodd" clip-rule="evenodd" fill="#D5C4A7" d="M868.6,819.6h-3.8c-2.5,0-4.5,2.3-4.5,5.1v18.9
			c0,2.8,2,5.1,4.5,5.1h3.8c0-0.2,0-0.5,0-0.7L868.6,819.6z"/>
		<path id="XMLID_118_" fill-rule="evenodd" clip-rule="evenodd" fill="#816A51" d="M860.3,834.3v9.3c0,2.8,2,5.1,4.5,5.1h3.8
			c0-0.2,0-0.5,0-0.7v-13.6H860.3z"/>
		<path id="XMLID_117_" fill-rule="evenodd" clip-rule="evenodd" fill="#D5C4A7" d="M960.6,819.6h3.8c2.5,0,4.5,2.3,4.5,5.1v18.9
			c0,2.8-2,5.1-4.5,5.1h-3.8c0-0.2,0-0.5,0-0.7V819.6z"/>
		<path id="XMLID_116_" fill-rule="evenodd" clip-rule="evenodd" fill="#816A51" d="M968.8,834.3v9.3c0,2.8-2,5.1-4.5,5.1h-3.8
			c0-0.2,0-0.5,0-0.7v-13.6H968.8z"/>
		<path id="XMLID_115_" fill-rule="evenodd" clip-rule="evenodd" fill="#B6A385" d="M877.5,799.9h74.4c4.9,0,8.9,4,8.9,8.9V848
			c0,4.9-4,8.9-8.9,8.9h-74.4c-4.9,0-8.9-4-8.9-8.9l0-39.2C868.6,803.9,872.6,799.9,877.5,799.9"/>
		
			<path id="XMLID_114_" fill="none" stroke="#F8E1C3" stroke-width="0.9691" stroke-linecap="round" stroke-linejoin="round" stroke-miterlimit="22.9256" stroke-dasharray="4.8451,2.907" d="
			M877.7,809.7h74c3.9,0,7,3.2,7,7v30.9c0,3.9-3.2,7-7,7h-74c-3.9,0-7-3.2-7-7v-30.9C870.7,812.8,873.8,809.7,877.7,809.7z"/>
		<path id="XMLID_113_" fill-rule="evenodd" clip-rule="evenodd" fill="#AC9876" d="M874.4,787.4h80.5c3.2,0,5.9,2.6,5.9,5.9v15.9
			c0,8.7-7.1,15.9-15.9,15.9l-60.5,0c-8.7,0-15.9-7.2-15.9-15.9l0-15.9C868.6,790.1,871.2,787.4,874.4,787.4"/>
		<path id="XMLID_112_" fill-rule="evenodd" clip-rule="evenodd" fill="#D5C4A7" d="M874.4,785.6h80.5c3.2,0,5.9,2.6,5.9,5.9v15.9
			c0,8.7-7.1,15.9-15.9,15.9l-60.5,0c-8.7,0-15.9-7.2-15.9-15.9l0-15.9C868.6,788.3,871.2,785.6,874.4,785.6"/>
		
			<path id="XMLID_111_" fill="none" stroke="#F8E1C3" stroke-width="0.9691" stroke-linecap="round" stroke-linejoin="round" stroke-miterlimit="22.9256" stroke-dasharray="4.8451,2.907" d="
			M958.7,787.9V806c0,8.3-6.8,15.1-15.1,15.1h-57.8c-8.3,0-15.2-6.8-15.2-15.2l0-18"/>
		<polygon id="XMLID_110_" fill-rule="evenodd" clip-rule="evenodd" fill="#816A51" points="897.9,839.3 897.9,846 896.1,850.7 
			894.1,850.7 892.2,846 892.2,839.3 892.2,811.3 892.2,804.5 894.1,799.9 896.1,799.9 897.9,804.5 897.9,839.3 		"/>
		<path fill-rule="evenodd" clip-rule="evenodd" fill="#FFFFFF" d="M892.9,827h4.3c0.6,0,1.2,0.3,1.6,0.7c0.4,0.4,0.7,1,0.7,1.6
			l0,4.5c0,0.6-0.3,1.2-0.7,1.6c-0.4,0.4-1,0.7-1.6,0.7h-4.3c-0.6,0-1.2-0.3-1.6-0.7l0,0c-0.4-0.4-0.7-1-0.7-1.6l0-4.5
			c0-0.6,0.3-1.2,0.7-1.6h0C891.7,827.2,892.3,827,892.9,827z M897.2,828.5h-4.3c-0.2,0-0.4,0.1-0.6,0.2l0,0
			c-0.1,0.1-0.2,0.4-0.2,0.6l0,4.5c0,0.2,0.1,0.4,0.2,0.6l0,0c0.1,0.1,0.4,0.2,0.6,0.2h4.3c0.2,0,0.4-0.1,0.6-0.2
			c0.1-0.1,0.2-0.4,0.2-0.6l0-4.5c0-0.2-0.1-0.4-0.2-0.6C897.6,828.6,897.4,828.5,897.2,828.5z"/>
		<path id="XMLID_107_" fill-rule="evenodd" clip-rule="evenodd" fill="#816A51" d="M895.1,830.9L895.1,830.9
			c-0.4,0-0.7-0.3-0.7-0.7l0-3.8c0-0.4,0.3-0.7,0.7-0.7h0c0.4,0,0.7,0.3,0.7,0.7l0,3.8C895.8,830.6,895.5,830.9,895.1,830.9"/>
		<rect id="XMLID_106_" x="892.1" y="832.3" fill-rule="evenodd" clip-rule="evenodd" fill="#96816B" width="5.9" height="5.5"/>
		<path id="XMLID_105_" fill-rule="evenodd" clip-rule="evenodd" fill="#B6A385" d="M895.1,831.4c-0.5,0-0.9-0.4-0.9-0.9
			c0-0.5,0.4-0.9,0.9-0.9c0.5,0,0.9,0.4,0.9,0.9C896,831,895.6,831.4,895.1,831.4"/>
		<path id="XMLID_104_" fill-rule="evenodd" clip-rule="evenodd" fill="#FFFFFF" d="M895.1,830.9L895.1,830.9
			c-0.3,0-0.5-0.2-0.5-0.5l0-4.3c0-0.3,0.2-0.5,0.5-0.5h0c0.3,0,0.5,0.2,0.5,0.5l0,4.3C895.5,830.7,895.3,830.9,895.1,830.9"/>
		<path id="XMLID_103_" fill-rule="evenodd" clip-rule="evenodd" fill="#6E604D" d="M892.1,836.5h5.9c0.3,0,0.6,0.3,0.6,0.6l0,1
			c0,0.3-0.3,0.6-0.6,0.6l-5.9,0c-0.3,0-0.6-0.3-0.6-0.6l0-1C891.6,836.8,891.8,836.5,892.1,836.5"/>
		<polygon id="XMLID_102_" fill-rule="evenodd" clip-rule="evenodd" fill="#816A51" points="937.2,839.3 937.2,846 935.3,850.7 
			933.3,850.7 931.4,846 931.4,839.3 931.4,811.3 931.4,804.5 933.3,799.9 935.3,799.9 937.2,804.5 		"/>
		<path fill-rule="evenodd" clip-rule="evenodd" fill="#FFFFFF" d="M932.2,827h4.3c0.6,0,1.2,0.3,1.6,0.7c0.4,0.4,0.7,1,0.7,1.6v4.5
			c0,0.6-0.3,1.2-0.7,1.6c-0.4,0.4-1,0.7-1.6,0.7h-4.3c-0.6,0-1.2-0.3-1.6-0.7l0,0c-0.4-0.4-0.7-1-0.7-1.6l0-4.5
			c0-0.6,0.3-1.2,0.7-1.6h0C931,827.2,931.5,827,932.2,827z M936.5,828.5h-4.3c-0.2,0-0.4,0.1-0.6,0.2l0,0c-0.1,0.1-0.2,0.4-0.2,0.6
			l0,4.5c0,0.2,0.1,0.4,0.2,0.6l0,0c0.1,0.1,0.4,0.2,0.6,0.2h4.3c0.2,0,0.4-0.1,0.6-0.2c0.1-0.1,0.2-0.4,0.2-0.6l0-4.5
			c0-0.2-0.1-0.4-0.2-0.6C936.9,828.6,936.7,828.5,936.5,828.5z"/>
		<path id="XMLID_99_" fill-rule="evenodd" clip-rule="evenodd" fill="#816A51" d="M934.3,830.9L934.3,830.9c-0.4,0-0.7-0.3-0.7-0.7
			l0-3.8c0-0.4,0.3-0.7,0.7-0.7h0c0.4,0,0.7,0.3,0.7,0.7l0,3.8C935,830.6,934.7,830.9,934.3,830.9"/>
		<rect id="XMLID_98_" x="931.4" y="832.3" fill-rule="evenodd" clip-rule="evenodd" fill="#96816B" width="5.9" height="5.5"/>
		<path id="XMLID_97_" fill-rule="evenodd" clip-rule="evenodd" fill="#B6A385" d="M934.3,831.4c-0.5,0-0.9-0.4-0.9-0.9
			c0-0.5,0.4-0.9,0.9-0.9c0.5,0,0.9,0.4,0.9,0.9C935.2,831,934.8,831.4,934.3,831.4"/>
		<path id="XMLID_96_" fill-rule="evenodd" clip-rule="evenodd" fill="#FFFFFF" d="M934.3,830.9L934.3,830.9c-0.3,0-0.5-0.2-0.5-0.5
			l0-4.3c0-0.3,0.2-0.5,0.5-0.5h0c0.3,0,0.5,0.2,0.5,0.5l0,4.3C934.8,830.7,934.6,830.9,934.3,830.9"/>
		<path id="XMLID_95_" fill-rule="evenodd" clip-rule="evenodd" fill="#6E604D" d="M931.4,836.5h5.9c0.3,0,0.6,0.3,0.6,0.6l0,1
			c0,0.3-0.3,0.6-0.6,0.6l-5.9,0c-0.3,0-0.6-0.3-0.6-0.6l0-1C930.8,836.8,931.1,836.5,931.4,836.5"/>
		<path id="XMLID_94_" fill-rule="evenodd" clip-rule="evenodd" fill="#515254" d="M717.3,599h-1.5L700,577.7L684.3,599h-1.9v5.3
			c4.6,0,8.9,1.8,12.2,5.1c3,3,8,3,11,0l0.3-0.3c3.1-3.1,7.2-4.8,11.6-4.8V599H717.3z"/>
		<path id="XMLID_93_" fill-rule="evenodd" clip-rule="evenodd" fill="#6D6F71" d="M700.1,610.2v-13.2l-5.1,10.8
			C696.4,609.2,698.1,610,700.1,610.2"/>
		<path id="XMLID_92_" fill-rule="evenodd" clip-rule="evenodd" fill="#515254" d="M742.7,550.4c-3.5-2.9-29.2-4-40.7-4.4v-0.1
			c-3,0.1-1.1,0.1-4,0v0.1c-11.5,0.3-37.2,1.5-40.7,4.4c-4,3.3-3.6,12.6-3.6,12.6c7-13,34-13.3,44.2-12.8v0.2c1.8-0.2,2.2-0.2,4,0
			v-0.2c10.3-0.4,37.2-0.2,44.2,12.8C746.3,563,746.6,553.7,742.7,550.4"/>
		<path id="XMLID_91_" fill-rule="evenodd" clip-rule="evenodd" fill="#FFC84D" d="M737.9,554.4c-12.1-4.2-24.9-6.3-37.8-6.1
			c-12.9-0.2-25.7,1.9-37.8,6.1c-12.6,4.4-12.5,14.8-10.6,25.5l0.1,0.3c1.1,5.9,1.4,7.7,2.4,10.8c2.9,9.1,9.2,11.3,14.5,12.2
			c8,1.4,16.1,1.4,17,1.4c5.7,0,11.7-9.1,14.4-9.1c2.7,0,8.7,9.1,14.4,9.1c0.9,0,9-0.1,17-1.4c5.3-0.9,11.7-3.2,14.5-12.2
			c1-3.1,1.3-4.9,2.4-10.8l0.1-0.2C750.3,569.3,750.4,558.8,737.9,554.4"/>
		<path id="XMLID_90_" fill-rule="evenodd" clip-rule="evenodd" fill="#D38230" d="M736.1,559.5c-11.5-4-23.7-6-36.1-5.8
			c-12.3-0.2-24.5,1.8-36.1,5.8c-7.5,2.6-9.2,7.5-7,19.5l0.1,0.3c1.1,5.8,1.3,7.3,2.2,10.1c1.9,5.9,5.5,7.7,10.3,8.6
			c7.5,1.3,15.2,1.3,16,1.3c3.4,0,6.3-3,9-5.9c1.8-1.8,4.1-4.3,5.4-4.3c1.3,0,3.6,2.5,5.4,4.3c2.8,2.9,5.6,5.9,9,5.9
			c0.9,0,8.6-0.1,16-1.3c4.9-0.9,8.4-2.6,10.3-8.6c0.9-2.8,1.1-4.4,2.2-10.1l0.1-0.2C745.3,567,743.5,562.1,736.1,559.5"/>
		<path id="XMLID_89_" fill-rule="evenodd" clip-rule="evenodd" fill="#4BA9DE" d="M735.3,561.8c-11.3-4-23.3-5.9-35.3-5.7
			c-11.9-0.2-23.9,1.7-35.3,5.7c-5,1.8-7.8,4.2-5.5,16.8c1.1,5.9,1.3,7.4,2.2,10.1c1.4,4.5,3.8,6.1,8.4,6.9
			c6.4,1.1,13.2,1.3,15.6,1.3c4.8,0,9.8-10.2,14.4-10.2c4.7,0,9.6,10.2,14.4,10.2c2.4,0,9.3-0.2,15.6-1.3c4.6-0.8,7-2.4,8.4-6.9
			c0.9-2.7,1.1-4.2,2.2-10.1C743.1,566,740.3,563.5,735.3,561.8"/>
		<path id="XMLID_88_" fill-rule="evenodd" clip-rule="evenodd" fill="#506DB4" d="M740.7,572.6c-1.1,5.9-1.3,7.4-2.2,10.1
			c-1.4,4.5-3.8,6.1-8.4,6.9c-6.4,1.1-13.2,1.3-15.6,1.3c-4.8,0-9.8-10.2-14.4-10.2c-4.7,0-9.6,10.2-14.4,10.2
			c-2.4,0-9.3-0.2-15.6-1.3c-4.6-0.8-7-2.4-8.4-6.9c-0.9-2.7-1.1-4.2-2.2-10.1c-0.3-1.6-0.5-3-0.6-4.2c-0.3,2.4-0.2,5.6,0.6,10.2
			c1.1,5.9,1.3,7.4,2.2,10.1c1.4,4.5,3.8,6.1,8.4,6.9c6.4,1.1,13.2,1.3,15.6,1.3c4.8,0,9.8-10.2,14.4-10.2c4.7,0,9.6,10.2,14.4,10.2
			c2.4,0,9.3-0.2,15.6-1.3c4.6-0.8,7-2.4,8.4-6.9c0.9-2.7,1.1-4.2,2.2-10.1c0.8-4.6,1-7.8,0.6-10.2C741.2,569.6,741,571,740.7,572.6
			"/>
		<path id="XMLID_87_" fill-rule="evenodd" clip-rule="evenodd" fill="#93D5D9" d="M713.8,590.8l17.1-30.5c-2.5-0.7-5.1-1.4-7.6-2
			l-15.6,28C709.8,588.5,711.8,590.5,713.8,590.8"/>
		<path id="XMLID_86_" fill-rule="evenodd" clip-rule="evenodd" fill="#93D5D9" d="M722.7,590.5l15.4-27.5c-0.8-0.5-1.8-0.9-2.8-1.2
			c-0.2-0.1-0.5-0.1-0.7-0.2l-16.3,29.3C719.6,590.8,721.1,590.7,722.7,590.5"/>
		<path id="XMLID_85_" fill-rule="evenodd" clip-rule="evenodd" fill="#BBE3E4" d="M735.3,561.8c-11.3-4-23.3-5.9-35.3-5.7
			c-11.9-0.2-23.9,1.7-35.3,5.7c-5,1.8-7.8,4.2-5.5,16.8c1.1,5.9,1.3,7.4,2.2,10.1c1.4,4.5,3.8,6.1,8.4,6.9
			c6.4,1.1,13.2,1.3,15.6,1.3c4.8,0,9.8-10.2,14.4-10.2c4.7,0,9.6,10.2,14.4,10.2c2.4,0,9.3-0.2,15.6-1.3c4.6-0.8,7-2.4,8.4-6.9
			c0.9-2.7,1.1-4.2,2.2-10.1C743.1,566,740.3,563.5,735.3,561.8"/>
		<path id="XMLID_84_" fill-rule="evenodd" clip-rule="evenodd" fill="#515254" d="M740.7,572.6c-1.1,5.9-1.3,7.4-2.2,10.1
			c-1.4,4.5-3.8,6.1-8.4,6.9c-6.4,1.1-13.2,1.3-15.6,1.3c-4.8,0-9.8-10.2-14.4-10.2c-4.7,0-9.6,10.2-14.4,10.2
			c-2.4,0-9.3-0.2-15.6-1.3c-4.6-0.8-7-2.4-8.4-6.9c-0.9-2.7-1.1-4.2-2.2-10.1c-0.3-1.6-0.5-3-0.6-4.2c-0.3,2.4-0.2,5.6,0.6,10.2
			c1.1,5.9,1.3,7.4,2.2,10.1c1.4,4.5,3.8,6.1,8.4,6.9c6.4,1.1,13.2,1.3,15.6,1.3c4.8,0,9.8-10.2,14.4-10.2c4.7,0,9.6,10.2,14.4,10.2
			c2.4,0,9.3-0.2,15.6-1.3c4.6-0.8,7-2.4,8.4-6.9c0.9-2.7,1.1-4.2,2.2-10.1c0.8-4.6,1-7.8,0.6-10.2C741.2,569.6,741,571,740.7,572.6
			"/>
		<path id="XMLID_83_" fill-rule="evenodd" clip-rule="evenodd" fill="#DBF0EF" d="M713.8,590.8l17.1-30.5c-2.5-0.7-5.1-1.4-7.6-2
			l-15.6,28C709.8,588.5,711.8,590.5,713.8,590.8"/>
		<path id="XMLID_82_" fill-rule="evenodd" clip-rule="evenodd" fill="#DBF0EF" d="M722.7,590.5l15.4-27.5c-0.8-0.5-1.8-0.9-2.8-1.2
			c-0.2-0.1-0.5-0.1-0.7-0.2l-16.3,29.3C719.6,590.8,721.1,590.7,722.7,590.5"/>
		<path id="XMLID_81_" fill-rule="evenodd" clip-rule="evenodd" fill="#DBF0EF" d="M661.6,582.7c0.8,2.6,2,4.2,3.6,5.3l17.1-30.6
			c-3.3,0.5-6.5,1.2-9.8,2.1l-11.6,20.8C661,581.1,661.3,581.8,661.6,582.7"/>
		<path id="XMLID_80_" fill-rule="evenodd" clip-rule="evenodd" fill="#DBF0EF" d="M670,589.6c0.9,0.1,1.8,0.3,2.8,0.4l18.8-33.7
			c-1.5,0.1-3,0.2-4.5,0.4l-18.2,32.6C669.2,589.4,669.6,589.6,670,589.6"/>
		<rect id="XMLID_79_" x="477.5" y="562.6" fill-rule="evenodd" clip-rule="evenodd" fill="#F3C97D" width="1.9" height="1.3"/>
		<path id="XMLID_78_" fill-rule="evenodd" clip-rule="evenodd" fill="#F3C97D" d="M477.2,562.4L477.2,562.4c0-0.3,0.3-0.6,0.6-0.6
			l1.4,0c0.3,0,0.6,0.3,0.6,0.6v0c0,0.3-0.3,0.6-0.6,0.6l-1.4,0C477.4,563,477.2,562.7,477.2,562.4"/>
		<path fill-rule="evenodd" clip-rule="evenodd" fill="#F3C97D" d="M495.8,572.7c0-0.2-0.1-0.3-0.1-0.3l-6.5,0c0,0-0.1,0.1-0.1,0.3
			v13.5c0,0.2,0.1,0.3,0.1,0.3l6.5,0c0,0,0.1-0.1,0.1-0.3V572.7z M487.7,586.2l0-13.5c0-0.9,0.6-1.6,1.4-1.6l6.5,0
			c0.8,0,1.4,0.7,1.4,1.6v13.5c0,0.9-0.6,1.6-1.4,1.6h-6.5C488.4,587.9,487.7,587.2,487.7,586.2L487.7,586.2z"/>
		<path id="XMLID_75_" fill-rule="evenodd" clip-rule="evenodd" fill="#5E4842" d="M495.4,585.9v-12.8h57.3c0.2,0,0.4,0.2,0.4,0.4
			v12c0,0.2-0.2,0.4-0.4,0.4H495.4z"/>
		<path fill-rule="evenodd" clip-rule="evenodd" fill="#F3C97D" d="M461.1,586.2c0,0.2,0.1,0.3,0.1,0.3l6.5,0c0,0,0.1-0.1,0.1-0.3
			l0-13.5c0-0.2-0.1-0.3-0.1-0.3l-6.5,0c0,0-0.1,0.1-0.1,0.3V586.2z M469.2,572.7v13.5c0,0.9-0.6,1.6-1.4,1.6h-6.5
			c-0.8,0-1.4-0.7-1.4-1.6v-13.5c0-0.9,0.6-1.6,1.4-1.6l6.5,0C468.5,571.1,469.2,571.8,469.2,572.7L469.2,572.7z"/>
		<path id="XMLID_72_" fill-rule="evenodd" clip-rule="evenodd" fill="#F3C97D" d="M466.1,590c-5.8-6.8-5-17,1.8-22.8
			c6.8-5.8,17-5,22.8,1.8c5.8,6.8,5,17-1.8,22.8C482,597.6,471.8,596.8,466.1,590"/>
		<path id="XMLID_71_" fill-rule="evenodd" clip-rule="evenodd" fill="#EBEBE9" d="M466.9,589.3c-5.4-6.3-4.7-15.9,1.7-21.3
			c6.3-5.4,15.9-4.7,21.3,1.7c5.4,6.3,4.7,15.9-1.7,21.3C481.8,596.4,472.3,595.6,466.9,589.3"/>
		<path id="XMLID_70_" fill-rule="evenodd" clip-rule="evenodd" fill="#5E4842" d="M461.5,573.1v12.8H410c-3.5,0-6.3-2.8-6.3-6.3
			v-0.1c0-3.5,2.8-6.3,6.3-6.3L461.5,573.1z"/>
		<path id="XMLID_69_" fill-rule="evenodd" clip-rule="evenodd" fill="#FFFFFF" d="M419.1,578.6c-0.5,0-0.9,0.4-0.9,0.9
			c0,0.5,0.4,0.9,0.9,0.9c0.5,0,0.9-0.4,0.9-0.9C420,579,419.6,578.6,419.1,578.6"/>
		<path id="XMLID_68_" fill-rule="evenodd" clip-rule="evenodd" fill="#FFFFFF" d="M423.6,578.6c-0.5,0-0.9,0.4-0.9,0.9
			c0,0.5,0.4,0.9,0.9,0.9c0.5,0,0.9-0.4,0.9-0.9C424.5,579,424.1,578.6,423.6,578.6"/>
		<path id="XMLID_67_" fill-rule="evenodd" clip-rule="evenodd" fill="#FFFFFF" d="M410.1,578.6c-0.5,0-0.9,0.4-0.9,0.9
			c0,0.5,0.4,0.9,0.9,0.9c0.5,0,0.9-0.4,0.9-0.9C411,579,410.6,578.6,410.1,578.6"/>
		<path id="XMLID_66_" fill-rule="evenodd" clip-rule="evenodd" fill="#FFFFFF" d="M414.6,578.6c-0.5,0-0.9,0.4-0.9,0.9
			c0,0.5,0.4,0.9,0.9,0.9c0.5,0,0.9-0.4,0.9-0.9C415.5,579,415.1,578.6,414.6,578.6"/>
		<path id="XMLID_65_" fill-rule="evenodd" clip-rule="evenodd" fill="#FFFFFF" d="M428.1,578.6c-0.5,0-0.9,0.4-0.9,0.9
			c0,0.5,0.4,0.9,0.9,0.9s0.9-0.4,0.9-0.9C429,579,428.6,578.6,428.1,578.6"/>
		<path id="XMLID_64_" fill-rule="evenodd" clip-rule="evenodd" fill="#FFFFFF" d="M432.6,578.6c-0.5,0-0.9,0.4-0.9,0.9
			c0,0.5,0.4,0.9,0.9,0.9c0.5,0,0.9-0.4,0.9-0.9C433.5,579,433.1,578.6,432.6,578.6"/>
		<path id="XMLID_63_" fill-rule="evenodd" clip-rule="evenodd" fill="#47342F" d="M542.1,572.2v14.6c0,0.3-0.3,0.6-0.6,0.6h-4.4
			c-0.3,0-0.6-0.3-0.6-0.6v-14.6c0-0.3,0.3-0.6,0.6-0.6l4.4,0C541.8,571.6,542.1,571.9,542.1,572.2"/>
		<path id="XMLID_62_" fill-rule="evenodd" clip-rule="evenodd" fill="#A98557" d="M477.5,562.9v0.5c0.6,0,1.3,0,1.9,0v-0.5
			c-0.1,0-0.2,0.1-0.3,0.1l-1.4,0C477.7,563,477.6,562.9,477.5,562.9"/>
		<path id="XMLID_61_" fill-rule="evenodd" clip-rule="evenodd" fill="#A98557" d="M477.2,562.4L477.2,562.4c0,0.2,0.1,0.4,0.3,0.5
			c0.1,0,0.2,0.1,0.3,0.1l1.4,0c0.1,0,0.2,0,0.3-0.1c0.2-0.1,0.3-0.3,0.3-0.5v0c0-0.3-0.3-0.6-0.6-0.6l-1.4,0
			C477.4,561.8,477.2,562.1,477.2,562.4"/>
		<path id="XMLID_60_" fill-rule="evenodd" clip-rule="evenodd" fill="#F3C97D" d="M563.4,571.4h1.7c1.1,0,2,0.9,2,2v12.1
			c0,1.1-0.9,2-2,2l-1.7,0c-0.2,0-0.4-0.2-0.4-0.4l0-15.5C563,571.5,563.2,571.4,563.4,571.4"/>
		<path id="XMLID_59_" fill-rule="evenodd" clip-rule="evenodd" fill="#F3C97D" d="M563,578.2h1.5c0.7,0,1.3,0.6,1.3,1.3
			c0,0.7-0.6,1.3-1.3,1.3H563V578.2z"/>
		<rect id="XMLID_58_" x="551.9" y="574.1" fill-rule="evenodd" clip-rule="evenodd" fill="#F3C97D" width="1" height="0.7"/>
		<rect id="XMLID_57_" x="551.9" y="584.2" fill-rule="evenodd" clip-rule="evenodd" fill="#F3C97D" width="1" height="0.7"/>
		<path id="XMLID_56_" fill-rule="evenodd" clip-rule="evenodd" fill="#F3C97D" d="M552.9,586.2v-13.3c0-0.8,0.6-1.4,1.4-1.4l0.8,0
			c0.2,0,0.4,0.2,0.4,0.4v15.4c0,0.2-0.2,0.4-0.4,0.4l-0.8,0C553.6,587.6,552.9,587,552.9,586.2"/>
		<rect id="XMLID_55_" x="555.6" y="585.9" fill-rule="evenodd" clip-rule="evenodd" fill="#F3C97D" width="7.4" height="1.2"/>
		<path id="XMLID_54_" fill-rule="evenodd" clip-rule="evenodd" fill="#F3C97D" d="M554.6,578.7h9.7c0.4,0,0.8,0.3,0.8,0.7
			c0,0.5-0.3,0.9-0.8,0.9h-9.7c-0.4,0-0.8-0.4-0.8-0.8C553.8,579,554.2,578.7,554.6,578.7"/>
		<rect id="XMLID_53_" x="555.6" y="571.8" fill-rule="evenodd" clip-rule="evenodd" fill="#F3C97D" width="7.4" height="1.2"/>
		<polygon id="XMLID_52_" fill-rule="evenodd" clip-rule="evenodd" fill="#47342F" points="552,573 552,574.1 552.9,574.1 
			552.9,574.8 552,574.8 552,584.2 552.9,584.2 552.9,584.9 552,584.9 552,585.9 552.9,585.9 552.9,573 		"/>
		<rect id="XMLID_51_" x="552" y="574.1" fill-rule="evenodd" clip-rule="evenodd" fill="#F3C97D" width="1" height="0.7"/>
		<rect id="XMLID_50_" x="552" y="584.2" fill-rule="evenodd" clip-rule="evenodd" fill="#F3C97D" width="1" height="0.7"/>
		<path fill-rule="evenodd" clip-rule="evenodd" d="M473.4,571.3l0.4-0.2l-1.2-2.1l-0.4,0.2L473.4,571.3z M470.2,584.4l-0.2-0.4
			l-2.1,1.2l0.2,0.4L470.2,584.4z M470,574.9l0.2-0.4l-2.1-1.2l-0.2,0.4L470,574.9z M468.8,579.7v-0.5h-2.4v0.5H468.8z M473.7,587.8
			l-0.4-0.2l-1.2,2.1l0.4,0.2L473.7,587.8z M478.5,589H478v2.4h0.5V589z M483.3,587.6l-0.4,0.2l1.2,2.1l0.4-0.2L483.3,587.6z
			 M486.7,584.1l-0.2,0.4l2.1,1.2l0.2-0.4L486.7,584.1z M487.9,579.3v0.5h2.4v-0.5H487.9z M486.5,574.6l0.2,0.4l2.1-1.2l-0.2-0.4
			L486.5,574.6z M482.9,571.1l0.4,0.2l1.2-2.1l-0.4-0.2L482.9,571.1z M478.1,570h0.5v-2.4h-0.5V570z"/>
		<path id="XMLID_37_" fill-rule="evenodd" clip-rule="evenodd" d="M478.6,579.9l4.6,4.3l0.2-0.3l-4.6-4.4
			C478.8,579.7,478.7,579.8,478.6,579.9L478.6,579.9z"/>
		<path fill-rule="evenodd" clip-rule="evenodd" d="M475.2,572.4l-0.3,0.1l2.8,6.1c-0.3,0.2-0.5,0.5-0.5,0.9c0,0.2,0.1,0.4,0.2,0.5
			l-2.6,3.3l0.6,0.4l2.6-3.3c0.1,0,0.2,0,0.3,0c0.6,0,1-0.5,1-1c0-0.6-0.5-1-1-1c-0.1,0-0.2,0-0.3,0L475.2,572.4z M478.9,579.5
			L478.9,579.5L478.9,579.5L478.9,579.5L478.9,579.5L478.9,579.5L478.9,579.5L478.9,579.5L478.9,579.5L478.9,579.5L478.9,579.5
			L478.9,579.5L478.9,579.5L478.9,579.5L478.9,579.5L478.9,579.5L478.9,579.5L478.9,579.5L478.9,579.5L478.9,579.5L478.9,579.5
			L478.9,579.5L478.9,579.5L478.9,579.5L478.9,579.5L478.9,579.5L478.9,579.5L478.9,579.5L478.9,579.5L478.9,579.5L478.9,579.5
			L478.9,579.5L478.9,579.5L478.9,579.5L478.9,579.5L478.9,579.5L478.9,579.5L478.9,579.5L478.9,579.5l0,0.1l0,0l0,0l0,0l0,0l0,0
			l0,0l0,0l0,0l0,0l0,0l0,0l0,0l0,0l0,0l0,0h0l0,0l0,0l0,0l0,0l0,0v0l0,0c0,0,0,0.1,0,0.1l0,0l0,0l0,0l0,0l0,0l0,0l0,0l0,0l0,0l0,0
			l0,0l0,0l0,0v0l0,0l0,0l0,0l0,0l0,0l0,0l0,0l0,0l0,0l0,0l0,0l0,0l0,0l0,0l0,0l0,0l0,0l0,0l0,0l0,0l0,0l0,0l0,0l0,0l0,0l0,0h0l0,0
			l0,0l0,0l0,0l0,0l0,0v0l0,0l0,0l0,0l0,0l0,0l0,0l0,0l0,0l0,0l0,0l0,0l0,0l0,0l0,0l0,0l0,0l0,0l0,0l0,0c-0.1,0.1-0.1,0.1-0.2,0.2
			l0,0l0,0h0l0,0l0,0l0,0l0,0l0,0l0,0l0,0l0,0l0,0l0,0l0,0l0,0l0,0l0,0l0,0l0,0l0,0l0,0l0,0l0,0l0,0l0,0l0,0h0l0,0l0,0l0,0l0,0h0
			l0,0l0,0l0,0l0,0l0,0l0,0l0,0l0,0l0,0l0,0l0,0l0,0h0l0,0l0,0l0,0l0,0l0,0h0h0l0,0c-0.3,0-0.6-0.3-0.6-0.6s0.3-0.6,0.6-0.6
			C478.6,578.9,478.9,579.1,478.9,579.5z"/>
		<path id="XMLID_34_" fill-rule="evenodd" clip-rule="evenodd" fill="#DA1F26" d="M463.7,788h43.7c1.2,0,2.2,1,2.2,2.2V829
			c0,1.2-1,2.2-2.2,2.2h-43.7c-1.2,0-2.2-1-2.2-2.2v-38.8C461.5,789,462.5,788,463.7,788"/>
		<rect id="XMLID_33_" x="464.2" y="790.7" fill-rule="evenodd" clip-rule="evenodd" fill="#D1D3D4" width="42.7" height="40.6"/>
		<path id="XMLID_32_" fill-rule="evenodd" clip-rule="evenodd" fill="#C82127" d="M509.6,790.2v-0.4c0-1.4-2.6-5.1-5.9-5.1h-36.4
			c-3.2,0-5.9,3.7-5.9,5.1v0.4c0-1.2,1-2.2,2.2-2.2h43.7C508.6,788,509.6,789,509.6,790.2"/>
		<path id="XMLID_31_" fill-rule="evenodd" clip-rule="evenodd" fill="#DA1F26" d="M510,833l4.8,8.7c0.7,1.2-0.2,2.1-1.8,2.1
			l-55.9,0c-1.2,0-1.7-0.6-1.1-1.7l5-9.1c0.3-0.5,0.6-0.7,1.2-0.7l46.8,0C509.5,832.4,509.7,832.5,510,833"/>
		<polygon id="XMLID_30_" fill-rule="evenodd" clip-rule="evenodd" fill="#D1D3D4" points="464.2,832.4 506.9,832.4 511.9,841.4 
			459.2,841.4 		"/>
		<polygon id="XMLID_29_" fill-rule="evenodd" clip-rule="evenodd" fill="#F2F2F2" points="464.5,832.4 459.7,841.2 511.4,841.2 
			506.6,832.4 		"/>
		<path id="XMLID_28_" fill-rule="evenodd" clip-rule="evenodd" fill="#C82127" d="M515,842.9v12.2c0,1.5-1.2,2.7-2.7,2.7h-53.5
			c-1.5,0-2.7-1.2-2.7-2.7v-11.6c0.2,0.2,0.6,0.3,1.1,0.3l55.9,0C514,843.9,514.7,843.5,515,842.9"/>
		<polygon id="XMLID_27_" fill-rule="evenodd" clip-rule="evenodd" fill="#D1D3D4" points="466.6,825.8 504.5,825.8 506.5,830.4 
			464.6,830.4 		"/>
		<rect id="XMLID_26_" x="466.6" y="790.7" fill-rule="evenodd" clip-rule="evenodd" fill="#F2F2F2" width="37.9" height="35.1"/>
		<rect id="XMLID_25_" x="464.2" y="828.6" fill-rule="evenodd" clip-rule="evenodd" fill="#E6E7E8" width="42.7" height="3.8"/>
		<path id="XMLID_24_" fill-rule="evenodd" clip-rule="evenodd" fill="#FFC808" d="M475.6,836.5c0-0.4-0.1-0.8-0.1-1.2
			c0-5.5,4.4-9.9,9.9-9.9c5.5,0,9.9,4.4,9.9,9.9c0,0.4,0,0.8-0.1,1.2h1.7c0-0.4,0.1-0.8,0.1-1.2c0-6.4-5.2-11.6-11.6-11.6
			c-6.4,0-11.6,5.2-11.6,11.6c0,0.4,0,0.8,0.1,1.2H475.6z"/>
		<path id="XMLID_23_" fill-rule="evenodd" clip-rule="evenodd" fill="#35A583" d="M488.6,820.5c0,1.7-1.4,3.1-3.1,3.1
			c-1.7,0-3.1-1.4-3.1-3.1c0-1.7,1.4-3.1,3.1-3.1C487.1,817.4,488.6,818.8,488.6,820.5"/>
		<path id="XMLID_22_" fill-rule="evenodd" clip-rule="evenodd" fill="#FFD600" d="M487.2,826c-1.1,0-2.5,0-3.5,0
			c-0.5-2-0.4-1.6-0.9-3.5c1.6,0,3.7,0,5.3,0C487.6,824.4,487.7,824,487.2,826"/>
		<path id="XMLID_21_" fill-rule="evenodd" clip-rule="evenodd" fill="#D1D3D4" d="M499.4,836.9h-27.9c-0.2,0-0.4-0.2-0.4-0.4
			c0-0.2,0.2-0.4,0.4-0.4l27.9,0c0.2,0,0.4,0.2,0.4,0.4C499.8,836.7,499.6,836.9,499.4,836.9"/>
		<path id="XMLID_20_" fill-rule="evenodd" clip-rule="evenodd" fill="#3FBB95" d="M485.4,822.1c-1.3,0-2.4-0.9-2.4-2.1
			c0-1.2,1.1-2.1,2.4-2.1c1.3,0,2.4,0.9,2.4,2.1C487.8,821.2,486.7,822.1,485.4,822.1"/>
		<rect id="XMLID_19_" x="889.9" y="607" fill-rule="evenodd" clip-rule="evenodd" fill="#3D2D3E" width="4.5" height="11.4"/>
		<rect id="XMLID_18_" x="934.7" y="607" fill-rule="evenodd" clip-rule="evenodd" fill="#3D2D3E" width="4.5" height="11.4"/>
		<rect id="XMLID_17_" x="889.9" y="566.5" fill-rule="evenodd" clip-rule="evenodd" fill="#634965" width="49.3" height="43"/>
		<rect id="XMLID_16_" x="893.9" y="569.2" fill-rule="evenodd" clip-rule="evenodd" fill="#503B52" width="41.4" height="17.7"/>
		<rect id="XMLID_15_" x="893.9" y="589.1" fill-rule="evenodd" clip-rule="evenodd" fill="#503B52" width="41.4" height="17.7"/>
		<path id="XMLID_14_" fill-rule="evenodd" clip-rule="evenodd" fill="#F7E6C3" d="M910.4,572.8h8.3c0.4,0,0.7,0.3,0.7,0.7l0,0.7
			c0,0.4-0.3,0.7-0.7,0.7h-8.3c-0.4,0-0.7-0.3-0.7-0.7v-0.7C909.8,573.1,910.1,572.8,910.4,572.8"/>
		<path id="XMLID_13_" fill-rule="evenodd" clip-rule="evenodd" fill="#F7E6C3" d="M910.4,592.5h8.3c0.4,0,0.7,0.3,0.7,0.7l0,0.7
			c0,0.4-0.3,0.7-0.7,0.7l-8.3,0c-0.4,0-0.7-0.3-0.7-0.7v-0.7C909.8,592.8,910.1,592.5,910.4,592.5"/>
		<rect id="XMLID_12_" x="889.9" y="609.5" fill-rule="evenodd" clip-rule="evenodd" fill="#503B52" width="4.5" height="1.3"/>
		<rect id="XMLID_11_" x="934.7" y="609.5" fill-rule="evenodd" clip-rule="evenodd" fill="#503B52" width="4.5" height="1.3"/>
		<rect id="XMLID_10_" x="893.9" y="585.9" fill-rule="evenodd" clip-rule="evenodd" fill="#3D2D3E" width="41.4" height="1"/>
		<rect id="XMLID_9_" x="893.9" y="605.8" fill-rule="evenodd" clip-rule="evenodd" fill="#3D2D3E" width="41.4" height="1"/>
		<rect id="XMLID_8_" x="913.7" y="550" fill-rule="evenodd" clip-rule="evenodd" fill="#634965" width="1.8" height="15.3"/>
		<rect id="XMLID_7_" x="914.6" y="550" fill-rule="evenodd" clip-rule="evenodd" fill="#3D2D3E" width="0.8" height="15.3"/>
		<path id="XMLID_6_" fill-rule="evenodd" clip-rule="evenodd" fill="#3D2D3E" d="M907.1,565.3h15c0.2,0,0.4,0.2,0.4,0.4v0.6
			c0,0.2-0.2,0.4-0.4,0.4h-15c-0.2,0-0.4-0.2-0.4-0.4v-0.6C906.7,565.5,906.9,565.3,907.1,565.3"/>
		<polygon id="XMLID_5_" fill-rule="evenodd" clip-rule="evenodd" fill="#F18B7E" points="901.6,553.9 927.6,553.9 925.2,539.1 
			903.8,539.1 		"/>
		<polygon id="XMLID_4_" fill-rule="evenodd" clip-rule="evenodd" fill="#D16358" points="910.4,553.9 927.6,553.9 925.2,539.1 
			911.1,539.1 		"/>
		<polygon id="XMLID_3_" fill-rule="evenodd" clip-rule="evenodd" fill="#F26E60" points="910.4,553.9 919,553.9 918,539.1 
			911.1,539.1 		"/>
		<path id="XMLID_2_" fill-rule="evenodd" clip-rule="evenodd" fill="#DADBDC" d="M573.5,1083.8l-10,48.8
			c-1.5,7.3,4.1,14.2,11.6,14.2l249.3-0.5c7.4,0,12.9-6.7,11.6-13.9l-9.1-48.8c-1-5.6-5.9-9.6-11.6-9.6l-230.2,0.5
			C579.4,1074.4,574.6,1078.3,573.5,1083.8z"/>
	</g>
</g>
</svg>
